solid OpenSCAD_Model
  facet normal -1 0 0
    outer loop
      vertex 60 0 22.5
      vertex 60 13 0
      vertex 60 0 0
    endloop
  endfacet
  facet normal -1 0 0
    outer loop
      vertex 60 13 0
      vertex 60 0 22.5
      vertex 60 14.9685 22.5
    endloop
  endfacet
  facet normal -1 0 0
    outer loop
      vertex 60 40 0
      vertex 60 27.0143 22.5
      vertex 60 40 22.5
    endloop
  endfacet
  facet normal -1 0 -0
    outer loop
      vertex 60 27.0143 22.5
      vertex 60 40 0
      vertex 60 25.0458 0
    endloop
  endfacet
  facet normal -0 0 1
    outer loop
      vertex 0 40 30
      vertex 67.5 27.6705 30
      vertex 67.5 40 30
    endloop
  endfacet
  facet normal 0 0 1
    outer loop
      vertex 67.5 27.6705 30
      vertex 0 40 30
      vertex 0 27.6705 30
    endloop
  endfacet
  facet normal -0 0 1
    outer loop
      vertex 0 15.6247 30
      vertex 67.5 0 30
      vertex 67.5 15.6247 30
    endloop
  endfacet
  facet normal 0 0 1
    outer loop
      vertex 67.5 0 30
      vertex 0 15.6247 30
      vertex 0 0 30
    endloop
  endfacet
  facet normal 0 0 -1
    outer loop
      vertex 52.5 27.0143 22.5
      vertex 60 40 22.5
      vertex 60 27.0143 22.5
    endloop
  endfacet
  facet normal -0 0 -1
    outer loop
      vertex 60 40 22.5
      vertex 52.5 27.0143 22.5
      vertex 52.5 40 22.5
    endloop
  endfacet
  facet normal 0 0 -1
    outer loop
      vertex 52.5 0 22.5
      vertex 60 14.9685 22.5
      vertex 60 0 22.5
    endloop
  endfacet
  facet normal -0 0 -1
    outer loop
      vertex 60 14.9685 22.5
      vertex 52.5 0 22.5
      vertex 52.5 14.9685 22.5
    endloop
  endfacet
  facet normal 0 0 -1
    outer loop
      vertex 7.5 0 22.5
      vertex 15 14.9685 22.5
      vertex 15 0 22.5
    endloop
  endfacet
  facet normal -0 0 -1
    outer loop
      vertex 15 14.9685 22.5
      vertex 7.5 0 22.5
      vertex 7.5 14.9685 22.5
    endloop
  endfacet
  facet normal 0 0 -1
    outer loop
      vertex 7.5 27.0143 22.5
      vertex 15 40 22.5
      vertex 15 27.0143 22.5
    endloop
  endfacet
  facet normal -0 0 -1
    outer loop
      vertex 15 40 22.5
      vertex 7.5 27.0143 22.5
      vertex 7.5 40 22.5
    endloop
  endfacet
  facet normal 0 0 -1
    outer loop
      vertex 22.5 27.0143 22.5
      vertex 30 40 22.5
      vertex 30 27.0143 22.5
    endloop
  endfacet
  facet normal -0 0 -1
    outer loop
      vertex 30 40 22.5
      vertex 22.5 27.0143 22.5
      vertex 22.5 40 22.5
    endloop
  endfacet
  facet normal 0 0 -1
    outer loop
      vertex 37.5 27.0143 22.5
      vertex 45 40 22.5
      vertex 45 27.0143 22.5
    endloop
  endfacet
  facet normal -0 0 -1
    outer loop
      vertex 45 40 22.5
      vertex 37.5 27.0143 22.5
      vertex 37.5 40 22.5
    endloop
  endfacet
  facet normal 0 0 -1
    outer loop
      vertex 22.5 0 22.5
      vertex 30 14.9685 22.5
      vertex 30 0 22.5
    endloop
  endfacet
  facet normal -0 0 -1
    outer loop
      vertex 30 14.9685 22.5
      vertex 22.5 0 22.5
      vertex 22.5 14.9685 22.5
    endloop
  endfacet
  facet normal 0 0 -1
    outer loop
      vertex 37.5 0 22.5
      vertex 45 14.9685 22.5
      vertex 45 0 22.5
    endloop
  endfacet
  facet normal -0 0 -1
    outer loop
      vertex 45 14.9685 22.5
      vertex 37.5 0 22.5
      vertex 37.5 14.9685 22.5
    endloop
  endfacet
  facet normal -1 0 0
    outer loop
      vertex 0 40 0
      vertex 0 27.6705 30
      vertex 0 40 30
    endloop
  endfacet
  facet normal -1 0 -0
    outer loop
      vertex 0 27.6705 30
      vertex 0 40 0
      vertex 0 25.0458 0
    endloop
  endfacet
  facet normal -1 0 0
    outer loop
      vertex 0 0 30
      vertex 0 13 0
      vertex 0 0 0
    endloop
  endfacet
  facet normal -1 0 0
    outer loop
      vertex 0 13 0
      vertex 0 0 30
      vertex 0 15.6247 30
    endloop
  endfacet
  facet normal 0 1 -0
    outer loop
      vertex 22.5 40 7.5
      vertex 15 40 22.5
      vertex 22.5 40 22.5
    endloop
  endfacet
  facet normal 0 1 0
    outer loop
      vertex 15 40 22.5
      vertex 22.5 40 7.5
      vertex 15 40 7.5
    endloop
  endfacet
  facet normal 0 1 -0
    outer loop
      vertex 37.5 40 0
      vertex 30 40 22.5
      vertex 37.5 40 22.5
    endloop
  endfacet
  facet normal 0 1 0
    outer loop
      vertex 30 40 22.5
      vertex 37.5 40 0
      vertex 30 40 0
    endloop
  endfacet
  facet normal 0 1 -0
    outer loop
      vertex 52.5 40 15
      vertex 45 40 22.5
      vertex 52.5 40 22.5
    endloop
  endfacet
  facet normal 0 1 0
    outer loop
      vertex 45 40 22.5
      vertex 52.5 40 15
      vertex 45 40 15
    endloop
  endfacet
  facet normal 0 1 0
    outer loop
      vertex 52.5 40 22.5
      vertex 67.5 40 30
      vertex 60 40 22.5
    endloop
  endfacet
  facet normal 0 1 -0
    outer loop
      vertex 67.5 40 0
      vertex 60 40 22.5
      vertex 67.5 40 30
    endloop
  endfacet
  facet normal 0 1 0
    outer loop
      vertex 60 40 22.5
      vertex 67.5 40 0
      vertex 60 40 0
    endloop
  endfacet
  facet normal 0 1 0
    outer loop
      vertex 45 40 22.5
      vertex 67.5 40 30
      vertex 52.5 40 22.5
    endloop
  endfacet
  facet normal 0 1 0
    outer loop
      vertex 37.5 40 22.5
      vertex 67.5 40 30
      vertex 45 40 22.5
    endloop
  endfacet
  facet normal 0 1 0
    outer loop
      vertex 67.5 40 30
      vertex 37.5 40 22.5
      vertex 0 40 30
    endloop
  endfacet
  facet normal 0 1 -0
    outer loop
      vertex 30 40 22.5
      vertex 0 40 30
      vertex 37.5 40 22.5
    endloop
  endfacet
  facet normal 0 1 -0
    outer loop
      vertex 22.5 40 22.5
      vertex 0 40 30
      vertex 30 40 22.5
    endloop
  endfacet
  facet normal 0 1 -0
    outer loop
      vertex 15 40 22.5
      vertex 0 40 30
      vertex 22.5 40 22.5
    endloop
  endfacet
  facet normal 0 1 -0
    outer loop
      vertex 7.5 40 22.5
      vertex 0 40 30
      vertex 15 40 22.5
    endloop
  endfacet
  facet normal 0 1 0
    outer loop
      vertex 0 40 0
      vertex 7.5 40 22.5
      vertex 7.5 40 0
    endloop
  endfacet
  facet normal 0 1 0
    outer loop
      vertex 7.5 40 22.5
      vertex 0 40 0
      vertex 0 40 30
    endloop
  endfacet
  facet normal 0 -1 0
    outer loop
      vertex 45 0 15
      vertex 52.5 0 22.5
      vertex 45 0 22.5
    endloop
  endfacet
  facet normal 0 -1 -0
    outer loop
      vertex 52.5 0 22.5
      vertex 45 0 15
      vertex 52.5 0 15
    endloop
  endfacet
  facet normal 0 -1 0
    outer loop
      vertex 30 0 0
      vertex 37.5 0 22.5
      vertex 30 0 22.5
    endloop
  endfacet
  facet normal 0 -1 -0
    outer loop
      vertex 37.5 0 22.5
      vertex 30 0 0
      vertex 37.5 0 0
    endloop
  endfacet
  facet normal 0 -1 0
    outer loop
      vertex 15 0 7.5
      vertex 22.5 0 22.5
      vertex 15 0 22.5
    endloop
  endfacet
  facet normal 0 -1 -0
    outer loop
      vertex 22.5 0 22.5
      vertex 15 0 7.5
      vertex 22.5 0 7.5
    endloop
  endfacet
  facet normal 0 -1 0
    outer loop
      vertex 15 0 22.5
      vertex 0 0 30
      vertex 7.5 0 22.5
    endloop
  endfacet
  facet normal 0 -1 0
    outer loop
      vertex 0 0 0
      vertex 7.5 0 22.5
      vertex 0 0 30
    endloop
  endfacet
  facet normal 0 -1 -0
    outer loop
      vertex 7.5 0 22.5
      vertex 0 0 0
      vertex 7.5 0 0
    endloop
  endfacet
  facet normal 0 -1 0
    outer loop
      vertex 22.5 0 22.5
      vertex 0 0 30
      vertex 15 0 22.5
    endloop
  endfacet
  facet normal 0 -1 0
    outer loop
      vertex 30 0 22.5
      vertex 0 0 30
      vertex 22.5 0 22.5
    endloop
  endfacet
  facet normal 0 -1 0
    outer loop
      vertex 0 0 30
      vertex 30 0 22.5
      vertex 67.5 0 30
    endloop
  endfacet
  facet normal 0 -1 0
    outer loop
      vertex 37.5 0 22.5
      vertex 67.5 0 30
      vertex 30 0 22.5
    endloop
  endfacet
  facet normal 0 -1 0
    outer loop
      vertex 45 0 22.5
      vertex 67.5 0 30
      vertex 37.5 0 22.5
    endloop
  endfacet
  facet normal 0 -1 0
    outer loop
      vertex 52.5 0 22.5
      vertex 67.5 0 30
      vertex 45 0 22.5
    endloop
  endfacet
  facet normal 0 -1 0
    outer loop
      vertex 60 0 22.5
      vertex 67.5 0 30
      vertex 52.5 0 22.5
    endloop
  endfacet
  facet normal 0 -1 0
    outer loop
      vertex 67.5 0 0
      vertex 60 0 22.5
      vertex 60 0 0
    endloop
  endfacet
  facet normal 0 -1 0
    outer loop
      vertex 60 0 22.5
      vertex 67.5 0 0
      vertex 67.5 0 30
    endloop
  endfacet
  facet normal 1 -0 0
    outer loop
      vertex 7.5 27.0143 22.5
      vertex 7.5 40 0
      vertex 7.5 40 22.5
    endloop
  endfacet
  facet normal 1 0 0
    outer loop
      vertex 7.5 40 0
      vertex 7.5 27.0143 22.5
      vertex 7.5 25.0458 0
    endloop
  endfacet
  facet normal 1 -0 0
    outer loop
      vertex 7.5 0 22.5
      vertex 7.5 13 0
      vertex 7.5 14.9685 22.5
    endloop
  endfacet
  facet normal 1 0 0
    outer loop
      vertex 7.5 13 0
      vertex 7.5 0 22.5
      vertex 7.5 0 0
    endloop
  endfacet
  facet normal 0 0 -1
    outer loop
      vertex 7.5 25.0458 0
      vertex 6.56458 30.875 0
      vertex 7.5 40 0
    endloop
  endfacet
  facet normal 0 0 -1
    outer loop
      vertex 7.5 25.0458 0
      vertex 3.75 29.25 0
      vertex 6.56458 30.875 0
    endloop
  endfacet
  facet normal 0 0 -1
    outer loop
      vertex 0 25.0458 0
      vertex 3.75 29.25 0
      vertex 7.5 25.0458 0
    endloop
  endfacet
  facet normal -0 0 -1
    outer loop
      vertex 0.935417 30.875 0
      vertex 0 25.0458 0
      vertex 0.935417 34.125 0
    endloop
  endfacet
  facet normal -0 0 -1
    outer loop
      vertex 3.75 29.25 0
      vertex 0 25.0458 0
      vertex 0.935417 30.875 0
    endloop
  endfacet
  facet normal 0 0 -1
    outer loop
      vertex 6.56458 34.125 0
      vertex 7.5 40 0
      vertex 6.56458 30.875 0
    endloop
  endfacet
  facet normal 0 0 -1
    outer loop
      vertex 3.75 35.75 0
      vertex 7.5 40 0
      vertex 6.56458 34.125 0
    endloop
  endfacet
  facet normal 0 0 -1
    outer loop
      vertex 0 40 0
      vertex 3.75 35.75 0
      vertex 0.935417 34.125 0
    endloop
  endfacet
  facet normal 0 0 -1
    outer loop
      vertex 3.75 35.75 0
      vertex 0 40 0
      vertex 7.5 40 0
    endloop
  endfacet
  facet normal 0 0 -1
    outer loop
      vertex 0 40 0
      vertex 0.935417 34.125 0
      vertex 0 25.0458 0
    endloop
  endfacet
  facet normal 0 0 -1
    outer loop
      vertex 7.5 0 0
      vertex 6.56458 5.875 0
      vertex 7.5 13 0
    endloop
  endfacet
  facet normal 0 0 -1
    outer loop
      vertex 7.5 0 0
      vertex 3.75 4.25 0
      vertex 6.56458 5.875 0
    endloop
  endfacet
  facet normal 0 0 -1
    outer loop
      vertex 0 0 0
      vertex 3.75 4.25 0
      vertex 7.5 0 0
    endloop
  endfacet
  facet normal 0 0 -1
    outer loop
      vertex 0 13 0
      vertex 0.935417 5.875 0
      vertex 0 0 0
    endloop
  endfacet
  facet normal -0 0 -1
    outer loop
      vertex 3.75 4.25 0
      vertex 0 0 0
      vertex 0.935417 5.875 0
    endloop
  endfacet
  facet normal 0 0 -1
    outer loop
      vertex 6.56458 9.125 0
      vertex 7.5 13 0
      vertex 6.56458 5.875 0
    endloop
  endfacet
  facet normal 0 0 -1
    outer loop
      vertex 3.75 10.75 0
      vertex 7.5 13 0
      vertex 6.56458 9.125 0
    endloop
  endfacet
  facet normal 0 0 -1
    outer loop
      vertex 0 13 0
      vertex 3.75 10.75 0
      vertex 0.935417 9.125 0
    endloop
  endfacet
  facet normal 0 0 -1
    outer loop
      vertex 3.75 10.75 0
      vertex 0 13 0
      vertex 7.5 13 0
    endloop
  endfacet
  facet normal 0 0 -1
    outer loop
      vertex 0.935417 5.875 0
      vertex 0 13 0
      vertex 0.935417 9.125 0
    endloop
  endfacet
  facet normal 1 -0 0
    outer loop
      vertex 37.5 27.0143 22.5
      vertex 37.5 40 0
      vertex 37.5 40 22.5
    endloop
  endfacet
  facet normal 1 0 0
    outer loop
      vertex 37.5 40 0
      vertex 37.5 27.0143 22.5
      vertex 37.5 25.0458 0
    endloop
  endfacet
  facet normal 1 -0 0
    outer loop
      vertex 37.5 0 22.5
      vertex 37.5 13 0
      vertex 37.5 14.9685 22.5
    endloop
  endfacet
  facet normal 1 0 0
    outer loop
      vertex 37.5 13 0
      vertex 37.5 0 22.5
      vertex 37.5 0 0
    endloop
  endfacet
  facet normal 0 0 -1
    outer loop
      vertex 37.5 25.0458 0
      vertex 36.5646 30.875 0
      vertex 37.5 40 0
    endloop
  endfacet
  facet normal 0 0 -1
    outer loop
      vertex 37.5 25.0458 0
      vertex 33.75 29.25 0
      vertex 36.5646 30.875 0
    endloop
  endfacet
  facet normal 0 0 -1
    outer loop
      vertex 30 25.0458 0
      vertex 33.75 29.25 0
      vertex 37.5 25.0458 0
    endloop
  endfacet
  facet normal -0 0 -1
    outer loop
      vertex 30.9354 30.875 0
      vertex 30 25.0458 0
      vertex 30.9354 34.125 0
    endloop
  endfacet
  facet normal -0 0 -1
    outer loop
      vertex 33.75 29.25 0
      vertex 30 25.0458 0
      vertex 30.9354 30.875 0
    endloop
  endfacet
  facet normal 0 0 -1
    outer loop
      vertex 36.5646 34.125 0
      vertex 37.5 40 0
      vertex 36.5646 30.875 0
    endloop
  endfacet
  facet normal 0 0 -1
    outer loop
      vertex 33.75 35.75 0
      vertex 37.5 40 0
      vertex 36.5646 34.125 0
    endloop
  endfacet
  facet normal 0 0 -1
    outer loop
      vertex 30 40 0
      vertex 33.75 35.75 0
      vertex 30.9354 34.125 0
    endloop
  endfacet
  facet normal 0 0 -1
    outer loop
      vertex 33.75 35.75 0
      vertex 30 40 0
      vertex 37.5 40 0
    endloop
  endfacet
  facet normal 0 0 -1
    outer loop
      vertex 30 40 0
      vertex 30.9354 34.125 0
      vertex 30 25.0458 0
    endloop
  endfacet
  facet normal 0 0 -1
    outer loop
      vertex 37.5 0 0
      vertex 36.5646 5.875 0
      vertex 37.5 13 0
    endloop
  endfacet
  facet normal 0 0 -1
    outer loop
      vertex 37.5 0 0
      vertex 33.75 4.25 0
      vertex 36.5646 5.875 0
    endloop
  endfacet
  facet normal 0 0 -1
    outer loop
      vertex 30 0 0
      vertex 33.75 4.25 0
      vertex 37.5 0 0
    endloop
  endfacet
  facet normal 0 0 -1
    outer loop
      vertex 30 13 0
      vertex 30.9354 5.875 0
      vertex 30 0 0
    endloop
  endfacet
  facet normal -0 0 -1
    outer loop
      vertex 33.75 4.25 0
      vertex 30 0 0
      vertex 30.9354 5.875 0
    endloop
  endfacet
  facet normal 0 0 -1
    outer loop
      vertex 36.5646 9.125 0
      vertex 37.5 13 0
      vertex 36.5646 5.875 0
    endloop
  endfacet
  facet normal 0 0 -1
    outer loop
      vertex 33.75 10.75 0
      vertex 37.5 13 0
      vertex 36.5646 9.125 0
    endloop
  endfacet
  facet normal 0 0 -1
    outer loop
      vertex 30 13 0
      vertex 33.75 10.75 0
      vertex 30.9354 9.125 0
    endloop
  endfacet
  facet normal 0 0 -1
    outer loop
      vertex 33.75 10.75 0
      vertex 30 13 0
      vertex 37.5 13 0
    endloop
  endfacet
  facet normal 0 0 -1
    outer loop
      vertex 30.9354 5.875 0
      vertex 30 13 0
      vertex 30.9354 9.125 0
    endloop
  endfacet
  facet normal -1 0 0
    outer loop
      vertex 30 0 22.5
      vertex 30 13 0
      vertex 30 0 0
    endloop
  endfacet
  facet normal -1 0 0
    outer loop
      vertex 30 13 0
      vertex 30 0 22.5
      vertex 30 14.9685 22.5
    endloop
  endfacet
  facet normal -1 0 0
    outer loop
      vertex 30 40 0
      vertex 30 27.0143 22.5
      vertex 30 40 22.5
    endloop
  endfacet
  facet normal -1 0 -0
    outer loop
      vertex 30 27.0143 22.5
      vertex 30 40 0
      vertex 30 25.0458 0
    endloop
  endfacet
  facet normal 1 -0 0
    outer loop
      vertex 67.5 27.6705 30
      vertex 67.5 40 0
      vertex 67.5 40 30
    endloop
  endfacet
  facet normal 1 0 0
    outer loop
      vertex 67.5 40 0
      vertex 67.5 27.6705 30
      vertex 67.5 25.0458 0
    endloop
  endfacet
  facet normal 1 -0 0
    outer loop
      vertex 67.5 0 30
      vertex 67.5 13 0
      vertex 67.5 15.6247 30
    endloop
  endfacet
  facet normal 1 0 0
    outer loop
      vertex 67.5 13 0
      vertex 67.5 0 30
      vertex 67.5 0 0
    endloop
  endfacet
  facet normal 0 0 -1
    outer loop
      vertex 67.5 25.0458 0
      vertex 66.5646 30.875 0
      vertex 67.5 40 0
    endloop
  endfacet
  facet normal 0 0 -1
    outer loop
      vertex 67.5 25.0458 0
      vertex 63.75 29.25 0
      vertex 66.5646 30.875 0
    endloop
  endfacet
  facet normal 0 0 -1
    outer loop
      vertex 60 25.0458 0
      vertex 63.75 29.25 0
      vertex 67.5 25.0458 0
    endloop
  endfacet
  facet normal -0 0 -1
    outer loop
      vertex 60.9354 30.875 0
      vertex 60 25.0458 0
      vertex 60.9354 34.125 0
    endloop
  endfacet
  facet normal -0 0 -1
    outer loop
      vertex 63.75 29.25 0
      vertex 60 25.0458 0
      vertex 60.9354 30.875 0
    endloop
  endfacet
  facet normal 0 0 -1
    outer loop
      vertex 66.5646 34.125 0
      vertex 67.5 40 0
      vertex 66.5646 30.875 0
    endloop
  endfacet
  facet normal 0 0 -1
    outer loop
      vertex 63.75 35.75 0
      vertex 67.5 40 0
      vertex 66.5646 34.125 0
    endloop
  endfacet
  facet normal 0 0 -1
    outer loop
      vertex 60 40 0
      vertex 63.75 35.75 0
      vertex 60.9354 34.125 0
    endloop
  endfacet
  facet normal 0 0 -1
    outer loop
      vertex 63.75 35.75 0
      vertex 60 40 0
      vertex 67.5 40 0
    endloop
  endfacet
  facet normal 0 0 -1
    outer loop
      vertex 60 40 0
      vertex 60.9354 34.125 0
      vertex 60 25.0458 0
    endloop
  endfacet
  facet normal 0 0 -1
    outer loop
      vertex 67.5 0 0
      vertex 66.5646 5.875 0
      vertex 67.5 13 0
    endloop
  endfacet
  facet normal 0 0 -1
    outer loop
      vertex 67.5 0 0
      vertex 63.75 4.25 0
      vertex 66.5646 5.875 0
    endloop
  endfacet
  facet normal 0 0 -1
    outer loop
      vertex 60 0 0
      vertex 63.75 4.25 0
      vertex 67.5 0 0
    endloop
  endfacet
  facet normal 0 0 -1
    outer loop
      vertex 60 13 0
      vertex 60.9354 5.875 0
      vertex 60 0 0
    endloop
  endfacet
  facet normal -0 0 -1
    outer loop
      vertex 63.75 4.25 0
      vertex 60 0 0
      vertex 60.9354 5.875 0
    endloop
  endfacet
  facet normal 0 0 -1
    outer loop
      vertex 66.5646 9.125 0
      vertex 67.5 13 0
      vertex 66.5646 5.875 0
    endloop
  endfacet
  facet normal 0 0 -1
    outer loop
      vertex 63.75 10.75 0
      vertex 67.5 13 0
      vertex 66.5646 9.125 0
    endloop
  endfacet
  facet normal 0 0 -1
    outer loop
      vertex 60 13 0
      vertex 63.75 10.75 0
      vertex 60.9354 9.125 0
    endloop
  endfacet
  facet normal 0 0 -1
    outer loop
      vertex 63.75 10.75 0
      vertex 60 13 0
      vertex 67.5 13 0
    endloop
  endfacet
  facet normal 0 0 -1
    outer loop
      vertex 60.9354 5.875 0
      vertex 60 13 0
      vertex 60.9354 9.125 0
    endloop
  endfacet
  facet normal 1 -0 0
    outer loop
      vertex 22.5 27.0143 22.5
      vertex 22.5 40 7.5
      vertex 22.5 40 22.5
    endloop
  endfacet
  facet normal 1 0 0
    outer loop
      vertex 22.5 40 7.5
      vertex 22.5 27.0143 22.5
      vertex 22.5 25.702 7.5
    endloop
  endfacet
  facet normal 1 -0 0
    outer loop
      vertex 22.5 0 22.5
      vertex 22.5 13.6562 7.5
      vertex 22.5 14.9685 22.5
    endloop
  endfacet
  facet normal 1 0 0
    outer loop
      vertex 22.5 13.6562 7.5
      vertex 22.5 0 22.5
      vertex 22.5 0 7.5
    endloop
  endfacet
  facet normal 0 0 -1
    outer loop
      vertex 15 25.702 7.5
      vertex 22.5 40 7.5
      vertex 22.5 25.702 7.5
    endloop
  endfacet
  facet normal -0 0 -1
    outer loop
      vertex 22.5 40 7.5
      vertex 15 25.702 7.5
      vertex 15 40 7.5
    endloop
  endfacet
  facet normal 0 0 -1
    outer loop
      vertex 15 0 7.5
      vertex 22.5 13.6562 7.5
      vertex 22.5 0 7.5
    endloop
  endfacet
  facet normal -0 0 -1
    outer loop
      vertex 22.5 13.6562 7.5
      vertex 15 0 7.5
      vertex 15 13.6562 7.5
    endloop
  endfacet
  facet normal -1 0 0
    outer loop
      vertex 15 0 22.5
      vertex 15 13.6562 7.5
      vertex 15 0 7.5
    endloop
  endfacet
  facet normal -1 0 0
    outer loop
      vertex 15 13.6562 7.5
      vertex 15 0 22.5
      vertex 15 14.9685 22.5
    endloop
  endfacet
  facet normal -1 0 0
    outer loop
      vertex 15 40 7.5
      vertex 15 27.0143 22.5
      vertex 15 40 22.5
    endloop
  endfacet
  facet normal -1 0 -0
    outer loop
      vertex 15 27.0143 22.5
      vertex 15 40 7.5
      vertex 15 25.702 7.5
    endloop
  endfacet
  facet normal 1 -0 0
    outer loop
      vertex 52.5 27.0143 22.5
      vertex 52.5 40 15
      vertex 52.5 40 22.5
    endloop
  endfacet
  facet normal 1 0 0
    outer loop
      vertex 52.5 40 15
      vertex 52.5 27.0143 22.5
      vertex 52.5 26.3582 15
    endloop
  endfacet
  facet normal 1 -0 0
    outer loop
      vertex 52.5 0 22.5
      vertex 52.5 14.3123 15
      vertex 52.5 14.9685 22.5
    endloop
  endfacet
  facet normal 1 0 0
    outer loop
      vertex 52.5 14.3123 15
      vertex 52.5 0 22.5
      vertex 52.5 0 15
    endloop
  endfacet
  facet normal 0 0 -1
    outer loop
      vertex 45 26.3582 15
      vertex 52.5 40 15
      vertex 52.5 26.3582 15
    endloop
  endfacet
  facet normal -0 0 -1
    outer loop
      vertex 52.5 40 15
      vertex 45 26.3582 15
      vertex 45 40 15
    endloop
  endfacet
  facet normal 0 0 -1
    outer loop
      vertex 45 0 15
      vertex 52.5 14.3123 15
      vertex 52.5 0 15
    endloop
  endfacet
  facet normal -0 0 -1
    outer loop
      vertex 52.5 14.3123 15
      vertex 45 0 15
      vertex 45 14.3123 15
    endloop
  endfacet
  facet normal -1 0 0
    outer loop
      vertex 45 0 22.5
      vertex 45 14.3123 15
      vertex 45 0 15
    endloop
  endfacet
  facet normal -1 0 0
    outer loop
      vertex 45 14.3123 15
      vertex 45 0 22.5
      vertex 45 14.9685 22.5
    endloop
  endfacet
  facet normal -1 0 0
    outer loop
      vertex 45 40 15
      vertex 45 27.0143 22.5
      vertex 45 40 22.5
    endloop
  endfacet
  facet normal -1 0 -0
    outer loop
      vertex 45 27.0143 22.5
      vertex 45 40 15
      vertex 45 26.3582 15
    endloop
  endfacet
  facet normal 0 -0.996195 0.0871472
    outer loop
      vertex 45 26.3582 15
      vertex 52.5 27.0143 22.5
      vertex 45 27.0143 22.5
    endloop
  endfacet
  facet normal 0 -0.996195 0.0871472
    outer loop
      vertex 52.5 27.0143 22.5
      vertex 45 26.3582 15
      vertex 52.5 26.3582 15
    endloop
  endfacet
  facet normal 0 -0.996195 0.087156
    outer loop
      vertex 30 25.0458 0
      vertex 37.5 27.0143 22.5
      vertex 30 27.0143 22.5
    endloop
  endfacet
  facet normal 0 -0.996195 0.087156
    outer loop
      vertex 37.5 27.0143 22.5
      vertex 30 25.0458 0
      vertex 37.5 25.0458 0
    endloop
  endfacet
  facet normal 0 -0.996195 0.0871538
    outer loop
      vertex 15 25.702 7.5
      vertex 22.5 27.0143 22.5
      vertex 15 27.0143 22.5
    endloop
  endfacet
  facet normal 0 -0.996195 0.0871538
    outer loop
      vertex 22.5 27.0143 22.5
      vertex 15 25.702 7.5
      vertex 22.5 25.702 7.5
    endloop
  endfacet
  facet normal 0 -0.996194 0.0871604
    outer loop
      vertex 15 27.0143 22.5
      vertex 0 27.6705 30
      vertex 7.5 27.0143 22.5
    endloop
  endfacet
  facet normal -3.32065e-06 -0.996195 0.0871571
    outer loop
      vertex 0 25.0458 0
      vertex 7.5 27.0143 22.5
      vertex 0 27.6705 30
    endloop
  endfacet
  facet normal 0 -0.996195 0.087156
    outer loop
      vertex 7.5 27.0143 22.5
      vertex 0 25.0458 0
      vertex 7.5 25.0458 0
    endloop
  endfacet
  facet normal 0 -0.996194 0.0871604
    outer loop
      vertex 22.5 27.0143 22.5
      vertex 0 27.6705 30
      vertex 15 27.0143 22.5
    endloop
  endfacet
  facet normal 0 -0.996194 0.0871604
    outer loop
      vertex 30 27.0143 22.5
      vertex 0 27.6705 30
      vertex 22.5 27.0143 22.5
    endloop
  endfacet
  facet normal 0 -0.996194 0.0871604
    outer loop
      vertex 0 27.6705 30
      vertex 30 27.0143 22.5
      vertex 67.5 27.6705 30
    endloop
  endfacet
  facet normal 0 -0.996194 0.0871604
    outer loop
      vertex 37.5 27.0143 22.5
      vertex 67.5 27.6705 30
      vertex 30 27.0143 22.5
    endloop
  endfacet
  facet normal 0 -0.996194 0.0871604
    outer loop
      vertex 45 27.0143 22.5
      vertex 67.5 27.6705 30
      vertex 37.5 27.0143 22.5
    endloop
  endfacet
  facet normal 0 -0.996194 0.0871604
    outer loop
      vertex 52.5 27.0143 22.5
      vertex 67.5 27.6705 30
      vertex 45 27.0143 22.5
    endloop
  endfacet
  facet normal 0 -0.996194 0.0871604
    outer loop
      vertex 60 27.0143 22.5
      vertex 67.5 27.6705 30
      vertex 52.5 27.0143 22.5
    endloop
  endfacet
  facet normal 0 -0.996195 0.087156
    outer loop
      vertex 67.5 25.0458 0
      vertex 60 27.0143 22.5
      vertex 60 25.0458 0
    endloop
  endfacet
  facet normal 3.32065e-06 -0.996195 0.0871571
    outer loop
      vertex 60 27.0143 22.5
      vertex 67.5 25.0458 0
      vertex 67.5 27.6705 30
    endloop
  endfacet
  facet normal 0 0.996195 -0.0871538
    outer loop
      vertex 22.5 13.6562 7.5
      vertex 15 14.9685 22.5
      vertex 22.5 14.9685 22.5
    endloop
  endfacet
  facet normal 0 0.996195 -0.0871538
    outer loop
      vertex 15 14.9685 22.5
      vertex 22.5 13.6562 7.5
      vertex 15 13.6562 7.5
    endloop
  endfacet
  facet normal 0 0.996195 -0.087156
    outer loop
      vertex 37.5 13 0
      vertex 30 14.9685 22.5
      vertex 37.5 14.9685 22.5
    endloop
  endfacet
  facet normal 0 0.996195 -0.087156
    outer loop
      vertex 30 14.9685 22.5
      vertex 37.5 13 0
      vertex 30 13 0
    endloop
  endfacet
  facet normal 0 0.996194 -0.0871604
    outer loop
      vertex 52.5 14.3123 15
      vertex 45 14.9685 22.5
      vertex 52.5 14.9685 22.5
    endloop
  endfacet
  facet normal 0 0.996194 -0.0871604
    outer loop
      vertex 45 14.9685 22.5
      vertex 52.5 14.3123 15
      vertex 45 14.3123 15
    endloop
  endfacet
  facet normal 0 0.996194 -0.0871604
    outer loop
      vertex 52.5 14.9685 22.5
      vertex 67.5 15.6247 30
      vertex 60 14.9685 22.5
    endloop
  endfacet
  facet normal -3.32065e-06 0.996195 -0.0871571
    outer loop
      vertex 67.5 13 0
      vertex 60 14.9685 22.5
      vertex 67.5 15.6247 30
    endloop
  endfacet
  facet normal 0 0.996195 -0.087156
    outer loop
      vertex 60 14.9685 22.5
      vertex 67.5 13 0
      vertex 60 13 0
    endloop
  endfacet
  facet normal 0 0.996194 -0.0871604
    outer loop
      vertex 45 14.9685 22.5
      vertex 67.5 15.6247 30
      vertex 52.5 14.9685 22.5
    endloop
  endfacet
  facet normal 0 0.996194 -0.0871604
    outer loop
      vertex 37.5 14.9685 22.5
      vertex 67.5 15.6247 30
      vertex 45 14.9685 22.5
    endloop
  endfacet
  facet normal 0 0.996194 -0.0871604
    outer loop
      vertex 67.5 15.6247 30
      vertex 37.5 14.9685 22.5
      vertex 0 15.6247 30
    endloop
  endfacet
  facet normal 0 0.996194 -0.0871604
    outer loop
      vertex 30 14.9685 22.5
      vertex 0 15.6247 30
      vertex 37.5 14.9685 22.5
    endloop
  endfacet
  facet normal 0 0.996194 -0.0871604
    outer loop
      vertex 22.5 14.9685 22.5
      vertex 0 15.6247 30
      vertex 30 14.9685 22.5
    endloop
  endfacet
  facet normal 0 0.996194 -0.0871604
    outer loop
      vertex 15 14.9685 22.5
      vertex 0 15.6247 30
      vertex 22.5 14.9685 22.5
    endloop
  endfacet
  facet normal 0 0.996194 -0.0871604
    outer loop
      vertex 7.5 14.9685 22.5
      vertex 0 15.6247 30
      vertex 15 14.9685 22.5
    endloop
  endfacet
  facet normal 0 0.996195 -0.087156
    outer loop
      vertex 0 13 0
      vertex 7.5 14.9685 22.5
      vertex 7.5 13 0
    endloop
  endfacet
  facet normal 3.32065e-06 0.996195 -0.0871571
    outer loop
      vertex 7.5 14.9685 22.5
      vertex 0 13 0
      vertex 0 15.6247 30
    endloop
  endfacet
  facet normal -0.5 0.866025 0
    outer loop
      vertex 6.56458 5.875 0
      vertex 3.75 4.25 7.5
      vertex 6.56458 5.875 7.5
    endloop
  endfacet
  facet normal -0.5 0.866025 0
    outer loop
      vertex 3.75 4.25 7.5
      vertex 6.56458 5.875 0
      vertex 3.75 4.25 0
    endloop
  endfacet
  facet normal -1 0 0
    outer loop
      vertex 6.56458 5.875 0
      vertex 6.56458 9.125 7.5
      vertex 6.56458 9.125 0
    endloop
  endfacet
  facet normal -1 -0 0
    outer loop
      vertex 6.56458 9.125 7.5
      vertex 6.56458 5.875 0
      vertex 6.56458 5.875 7.5
    endloop
  endfacet
  facet normal 0.5 -0.866025 0
    outer loop
      vertex 0.935417 9.125 0
      vertex 3.75 10.75 7.5
      vertex 0.935417 9.125 7.5
    endloop
  endfacet
  facet normal 0.5 -0.866025 0
    outer loop
      vertex 3.75 10.75 7.5
      vertex 0.935417 9.125 0
      vertex 3.75 10.75 0
    endloop
  endfacet
  facet normal -0.5 -0.866025 0
    outer loop
      vertex 3.75 10.75 0
      vertex 6.56458 9.125 7.5
      vertex 3.75 10.75 7.5
    endloop
  endfacet
  facet normal -0.5 -0.866025 -0
    outer loop
      vertex 6.56458 9.125 7.5
      vertex 3.75 10.75 0
      vertex 6.56458 9.125 0
    endloop
  endfacet
  facet normal 1 -0 0
    outer loop
      vertex 0.935417 5.875 7.5
      vertex 0.935417 9.125 0
      vertex 0.935417 9.125 7.5
    endloop
  endfacet
  facet normal 1 0 0
    outer loop
      vertex 0.935417 9.125 0
      vertex 0.935417 5.875 7.5
      vertex 0.935417 5.875 0
    endloop
  endfacet
  facet normal 0.5 0.866025 -0
    outer loop
      vertex 3.75 4.25 0
      vertex 0.935417 5.875 7.5
      vertex 3.75 4.25 7.5
    endloop
  endfacet
  facet normal 0.5 0.866025 0
    outer loop
      vertex 0.935417 5.875 7.5
      vertex 3.75 4.25 0
      vertex 0.935417 5.875 0
    endloop
  endfacet
  facet normal 0 0 -1
    outer loop
      vertex 3.75 4.25 7.5
      vertex 6.56458 9.125 7.5
      vertex 6.56458 5.875 7.5
    endloop
  endfacet
  facet normal 0 0 -1
    outer loop
      vertex 3.75 4.25 7.5
      vertex 3.75 10.75 7.5
      vertex 6.56458 9.125 7.5
    endloop
  endfacet
  facet normal 0 0 -1
    outer loop
      vertex 0.935417 5.875 7.5
      vertex 3.75 10.75 7.5
      vertex 3.75 4.25 7.5
    endloop
  endfacet
  facet normal 0 0 -1
    outer loop
      vertex 3.75 10.75 7.5
      vertex 0.935417 5.875 7.5
      vertex 0.935417 9.125 7.5
    endloop
  endfacet
  facet normal -0.499998 0.866027 0
    outer loop
      vertex 36.5646 5.875 0
      vertex 33.75 4.25 7.5
      vertex 36.5646 5.875 7.5
    endloop
  endfacet
  facet normal -0.499998 0.866027 0
    outer loop
      vertex 33.75 4.25 7.5
      vertex 36.5646 5.875 0
      vertex 33.75 4.25 0
    endloop
  endfacet
  facet normal -1 0 0
    outer loop
      vertex 36.5646 5.875 0
      vertex 36.5646 9.125 7.5
      vertex 36.5646 9.125 0
    endloop
  endfacet
  facet normal -1 -0 0
    outer loop
      vertex 36.5646 9.125 7.5
      vertex 36.5646 5.875 0
      vertex 36.5646 5.875 7.5
    endloop
  endfacet
  facet normal 0.499998 -0.866027 0
    outer loop
      vertex 30.9354 9.125 0
      vertex 33.75 10.75 7.5
      vertex 30.9354 9.125 7.5
    endloop
  endfacet
  facet normal 0.499998 -0.866027 0
    outer loop
      vertex 33.75 10.75 7.5
      vertex 30.9354 9.125 0
      vertex 33.75 10.75 0
    endloop
  endfacet
  facet normal -0.499998 -0.866027 0
    outer loop
      vertex 33.75 10.75 0
      vertex 36.5646 9.125 7.5
      vertex 33.75 10.75 7.5
    endloop
  endfacet
  facet normal -0.499998 -0.866027 -0
    outer loop
      vertex 36.5646 9.125 7.5
      vertex 33.75 10.75 0
      vertex 36.5646 9.125 0
    endloop
  endfacet
  facet normal 1 -0 0
    outer loop
      vertex 30.9354 5.875 7.5
      vertex 30.9354 9.125 0
      vertex 30.9354 9.125 7.5
    endloop
  endfacet
  facet normal 1 0 0
    outer loop
      vertex 30.9354 9.125 0
      vertex 30.9354 5.875 7.5
      vertex 30.9354 5.875 0
    endloop
  endfacet
  facet normal 0.499998 0.866027 -0
    outer loop
      vertex 33.75 4.25 0
      vertex 30.9354 5.875 7.5
      vertex 33.75 4.25 7.5
    endloop
  endfacet
  facet normal 0.499998 0.866027 0
    outer loop
      vertex 30.9354 5.875 7.5
      vertex 33.75 4.25 0
      vertex 30.9354 5.875 0
    endloop
  endfacet
  facet normal 0 0 -1
    outer loop
      vertex 33.75 4.25 7.5
      vertex 36.5646 9.125 7.5
      vertex 36.5646 5.875 7.5
    endloop
  endfacet
  facet normal 0 0 -1
    outer loop
      vertex 33.75 4.25 7.5
      vertex 33.75 10.75 7.5
      vertex 36.5646 9.125 7.5
    endloop
  endfacet
  facet normal 0 0 -1
    outer loop
      vertex 30.9354 5.875 7.5
      vertex 33.75 10.75 7.5
      vertex 33.75 4.25 7.5
    endloop
  endfacet
  facet normal 0 0 -1
    outer loop
      vertex 33.75 10.75 7.5
      vertex 30.9354 5.875 7.5
      vertex 30.9354 9.125 7.5
    endloop
  endfacet
  facet normal -0.499998 0.866027 0
    outer loop
      vertex 66.5646 5.875 0
      vertex 63.75 4.25 7.5
      vertex 66.5646 5.875 7.5
    endloop
  endfacet
  facet normal -0.499998 0.866027 0
    outer loop
      vertex 63.75 4.25 7.5
      vertex 66.5646 5.875 0
      vertex 63.75 4.25 0
    endloop
  endfacet
  facet normal -1 0 0
    outer loop
      vertex 66.5646 5.875 0
      vertex 66.5646 9.125 7.5
      vertex 66.5646 9.125 0
    endloop
  endfacet
  facet normal -1 -0 0
    outer loop
      vertex 66.5646 9.125 7.5
      vertex 66.5646 5.875 0
      vertex 66.5646 5.875 7.5
    endloop
  endfacet
  facet normal 0.499998 -0.866027 0
    outer loop
      vertex 60.9354 9.125 0
      vertex 63.75 10.75 7.5
      vertex 60.9354 9.125 7.5
    endloop
  endfacet
  facet normal 0.499998 -0.866027 0
    outer loop
      vertex 63.75 10.75 7.5
      vertex 60.9354 9.125 0
      vertex 63.75 10.75 0
    endloop
  endfacet
  facet normal -0.499998 -0.866027 0
    outer loop
      vertex 63.75 10.75 0
      vertex 66.5646 9.125 7.5
      vertex 63.75 10.75 7.5
    endloop
  endfacet
  facet normal -0.499998 -0.866027 -0
    outer loop
      vertex 66.5646 9.125 7.5
      vertex 63.75 10.75 0
      vertex 66.5646 9.125 0
    endloop
  endfacet
  facet normal 1 -0 0
    outer loop
      vertex 60.9354 5.875 7.5
      vertex 60.9354 9.125 0
      vertex 60.9354 9.125 7.5
    endloop
  endfacet
  facet normal 1 0 0
    outer loop
      vertex 60.9354 9.125 0
      vertex 60.9354 5.875 7.5
      vertex 60.9354 5.875 0
    endloop
  endfacet
  facet normal 0.499998 0.866027 -0
    outer loop
      vertex 63.75 4.25 0
      vertex 60.9354 5.875 7.5
      vertex 63.75 4.25 7.5
    endloop
  endfacet
  facet normal 0.499998 0.866027 0
    outer loop
      vertex 60.9354 5.875 7.5
      vertex 63.75 4.25 0
      vertex 60.9354 5.875 0
    endloop
  endfacet
  facet normal 0 0 -1
    outer loop
      vertex 63.75 4.25 7.5
      vertex 66.5646 9.125 7.5
      vertex 66.5646 5.875 7.5
    endloop
  endfacet
  facet normal 0 0 -1
    outer loop
      vertex 63.75 4.25 7.5
      vertex 63.75 10.75 7.5
      vertex 66.5646 9.125 7.5
    endloop
  endfacet
  facet normal 0 0 -1
    outer loop
      vertex 60.9354 5.875 7.5
      vertex 63.75 10.75 7.5
      vertex 63.75 4.25 7.5
    endloop
  endfacet
  facet normal 0 0 -1
    outer loop
      vertex 63.75 10.75 7.5
      vertex 60.9354 5.875 7.5
      vertex 60.9354 9.125 7.5
    endloop
  endfacet
  facet normal -0.5 0.866025 0
    outer loop
      vertex 6.56458 30.875 0
      vertex 3.75 29.25 7.5
      vertex 6.56458 30.875 7.5
    endloop
  endfacet
  facet normal -0.5 0.866025 0
    outer loop
      vertex 3.75 29.25 7.5
      vertex 6.56458 30.875 0
      vertex 3.75 29.25 0
    endloop
  endfacet
  facet normal -1 0 0
    outer loop
      vertex 6.56458 30.875 0
      vertex 6.56458 34.125 7.5
      vertex 6.56458 34.125 0
    endloop
  endfacet
  facet normal -1 -0 0
    outer loop
      vertex 6.56458 34.125 7.5
      vertex 6.56458 30.875 0
      vertex 6.56458 30.875 7.5
    endloop
  endfacet
  facet normal 0.5 -0.866025 0
    outer loop
      vertex 0.935417 34.125 0
      vertex 3.75 35.75 7.5
      vertex 0.935417 34.125 7.5
    endloop
  endfacet
  facet normal 0.5 -0.866025 0
    outer loop
      vertex 3.75 35.75 7.5
      vertex 0.935417 34.125 0
      vertex 3.75 35.75 0
    endloop
  endfacet
  facet normal -0.5 -0.866025 0
    outer loop
      vertex 3.75 35.75 0
      vertex 6.56458 34.125 7.5
      vertex 3.75 35.75 7.5
    endloop
  endfacet
  facet normal -0.5 -0.866025 -0
    outer loop
      vertex 6.56458 34.125 7.5
      vertex 3.75 35.75 0
      vertex 6.56458 34.125 0
    endloop
  endfacet
  facet normal 1 -0 0
    outer loop
      vertex 0.935417 30.875 7.5
      vertex 0.935417 34.125 0
      vertex 0.935417 34.125 7.5
    endloop
  endfacet
  facet normal 1 0 0
    outer loop
      vertex 0.935417 34.125 0
      vertex 0.935417 30.875 7.5
      vertex 0.935417 30.875 0
    endloop
  endfacet
  facet normal 0.5 0.866025 -0
    outer loop
      vertex 3.75 29.25 0
      vertex 0.935417 30.875 7.5
      vertex 3.75 29.25 7.5
    endloop
  endfacet
  facet normal 0.5 0.866025 0
    outer loop
      vertex 0.935417 30.875 7.5
      vertex 3.75 29.25 0
      vertex 0.935417 30.875 0
    endloop
  endfacet
  facet normal 0 0 -1
    outer loop
      vertex 3.75 29.25 7.5
      vertex 6.56458 34.125 7.5
      vertex 6.56458 30.875 7.5
    endloop
  endfacet
  facet normal 0 0 -1
    outer loop
      vertex 3.75 29.25 7.5
      vertex 3.75 35.75 7.5
      vertex 6.56458 34.125 7.5
    endloop
  endfacet
  facet normal 0 0 -1
    outer loop
      vertex 0.935417 30.875 7.5
      vertex 3.75 35.75 7.5
      vertex 3.75 29.25 7.5
    endloop
  endfacet
  facet normal 0 0 -1
    outer loop
      vertex 3.75 35.75 7.5
      vertex 0.935417 30.875 7.5
      vertex 0.935417 34.125 7.5
    endloop
  endfacet
  facet normal -0.499998 0.866027 0
    outer loop
      vertex 36.5646 30.875 0
      vertex 33.75 29.25 7.5
      vertex 36.5646 30.875 7.5
    endloop
  endfacet
  facet normal -0.499998 0.866027 0
    outer loop
      vertex 33.75 29.25 7.5
      vertex 36.5646 30.875 0
      vertex 33.75 29.25 0
    endloop
  endfacet
  facet normal -1 0 0
    outer loop
      vertex 36.5646 30.875 0
      vertex 36.5646 34.125 7.5
      vertex 36.5646 34.125 0
    endloop
  endfacet
  facet normal -1 -0 0
    outer loop
      vertex 36.5646 34.125 7.5
      vertex 36.5646 30.875 0
      vertex 36.5646 30.875 7.5
    endloop
  endfacet
  facet normal 0.499998 -0.866027 0
    outer loop
      vertex 30.9354 34.125 0
      vertex 33.75 35.75 7.5
      vertex 30.9354 34.125 7.5
    endloop
  endfacet
  facet normal 0.499998 -0.866027 0
    outer loop
      vertex 33.75 35.75 7.5
      vertex 30.9354 34.125 0
      vertex 33.75 35.75 0
    endloop
  endfacet
  facet normal -0.499998 -0.866027 0
    outer loop
      vertex 33.75 35.75 0
      vertex 36.5646 34.125 7.5
      vertex 33.75 35.75 7.5
    endloop
  endfacet
  facet normal -0.499998 -0.866027 -0
    outer loop
      vertex 36.5646 34.125 7.5
      vertex 33.75 35.75 0
      vertex 36.5646 34.125 0
    endloop
  endfacet
  facet normal 1 -0 0
    outer loop
      vertex 30.9354 30.875 7.5
      vertex 30.9354 34.125 0
      vertex 30.9354 34.125 7.5
    endloop
  endfacet
  facet normal 1 0 0
    outer loop
      vertex 30.9354 34.125 0
      vertex 30.9354 30.875 7.5
      vertex 30.9354 30.875 0
    endloop
  endfacet
  facet normal 0.499998 0.866027 -0
    outer loop
      vertex 33.75 29.25 0
      vertex 30.9354 30.875 7.5
      vertex 33.75 29.25 7.5
    endloop
  endfacet
  facet normal 0.499998 0.866027 0
    outer loop
      vertex 30.9354 30.875 7.5
      vertex 33.75 29.25 0
      vertex 30.9354 30.875 0
    endloop
  endfacet
  facet normal 0 0 -1
    outer loop
      vertex 33.75 29.25 7.5
      vertex 36.5646 34.125 7.5
      vertex 36.5646 30.875 7.5
    endloop
  endfacet
  facet normal 0 0 -1
    outer loop
      vertex 33.75 29.25 7.5
      vertex 33.75 35.75 7.5
      vertex 36.5646 34.125 7.5
    endloop
  endfacet
  facet normal 0 0 -1
    outer loop
      vertex 30.9354 30.875 7.5
      vertex 33.75 35.75 7.5
      vertex 33.75 29.25 7.5
    endloop
  endfacet
  facet normal 0 0 -1
    outer loop
      vertex 33.75 35.75 7.5
      vertex 30.9354 30.875 7.5
      vertex 30.9354 34.125 7.5
    endloop
  endfacet
  facet normal -0.499998 0.866027 0
    outer loop
      vertex 66.5646 30.875 0
      vertex 63.75 29.25 7.5
      vertex 66.5646 30.875 7.5
    endloop
  endfacet
  facet normal -0.499998 0.866027 0
    outer loop
      vertex 63.75 29.25 7.5
      vertex 66.5646 30.875 0
      vertex 63.75 29.25 0
    endloop
  endfacet
  facet normal -1 0 0
    outer loop
      vertex 66.5646 30.875 0
      vertex 66.5646 34.125 7.5
      vertex 66.5646 34.125 0
    endloop
  endfacet
  facet normal -1 -0 0
    outer loop
      vertex 66.5646 34.125 7.5
      vertex 66.5646 30.875 0
      vertex 66.5646 30.875 7.5
    endloop
  endfacet
  facet normal 0.499998 -0.866027 0
    outer loop
      vertex 60.9354 34.125 0
      vertex 63.75 35.75 7.5
      vertex 60.9354 34.125 7.5
    endloop
  endfacet
  facet normal 0.499998 -0.866027 0
    outer loop
      vertex 63.75 35.75 7.5
      vertex 60.9354 34.125 0
      vertex 63.75 35.75 0
    endloop
  endfacet
  facet normal -0.499998 -0.866027 0
    outer loop
      vertex 63.75 35.75 0
      vertex 66.5646 34.125 7.5
      vertex 63.75 35.75 7.5
    endloop
  endfacet
  facet normal -0.499998 -0.866027 -0
    outer loop
      vertex 66.5646 34.125 7.5
      vertex 63.75 35.75 0
      vertex 66.5646 34.125 0
    endloop
  endfacet
  facet normal 1 -0 0
    outer loop
      vertex 60.9354 30.875 7.5
      vertex 60.9354 34.125 0
      vertex 60.9354 34.125 7.5
    endloop
  endfacet
  facet normal 1 0 0
    outer loop
      vertex 60.9354 34.125 0
      vertex 60.9354 30.875 7.5
      vertex 60.9354 30.875 0
    endloop
  endfacet
  facet normal 0.499998 0.866027 -0
    outer loop
      vertex 63.75 29.25 0
      vertex 60.9354 30.875 7.5
      vertex 63.75 29.25 7.5
    endloop
  endfacet
  facet normal 0.499998 0.866027 0
    outer loop
      vertex 60.9354 30.875 7.5
      vertex 63.75 29.25 0
      vertex 60.9354 30.875 0
    endloop
  endfacet
  facet normal 0 0 -1
    outer loop
      vertex 63.75 29.25 7.5
      vertex 66.5646 34.125 7.5
      vertex 66.5646 30.875 7.5
    endloop
  endfacet
  facet normal 0 0 -1
    outer loop
      vertex 63.75 29.25 7.5
      vertex 63.75 35.75 7.5
      vertex 66.5646 34.125 7.5
    endloop
  endfacet
  facet normal 0 0 -1
    outer loop
      vertex 60.9354 30.875 7.5
      vertex 63.75 35.75 7.5
      vertex 63.75 29.25 7.5
    endloop
  endfacet
  facet normal 0 0 -1
    outer loop
      vertex 63.75 35.75 7.5
      vertex 60.9354 30.875 7.5
      vertex 60.9354 34.125 7.5
    endloop
  endfacet
endsolid OpenSCAD_Model
