solid OpenSCAD_Model
  facet normal -1 0 0
    outer loop
      vertex 0 0 0
      vertex 0 12.5 30
      vertex 0 12.5 0
    endloop
  endfacet
  facet normal -1 -0 0
    outer loop
      vertex 0 12.5 30
      vertex 0 0 0
      vertex 0 0 30
    endloop
  endfacet
  facet normal -1 0 0
    outer loop
      vertex 0 27.5 0
      vertex 0 40 30
      vertex 0 40 0
    endloop
  endfacet
  facet normal -1 -0 0
    outer loop
      vertex 0 40 30
      vertex 0 27.5 0
      vertex 0 27.5 30
    endloop
  endfacet
  facet normal -0 0 1
    outer loop
      vertex 0 12.5 30
      vertex 67.5 0 30
      vertex 67.5 12.5 30
    endloop
  endfacet
  facet normal 0 0 1
    outer loop
      vertex 67.5 0 30
      vertex 0 12.5 30
      vertex 0 0 30
    endloop
  endfacet
  facet normal -0 0 1
    outer loop
      vertex 0 40 30
      vertex 67.5 27.5 30
      vertex 67.5 40 30
    endloop
  endfacet
  facet normal 0 0 1
    outer loop
      vertex 67.5 27.5 30
      vertex 0 40 30
      vertex 0 27.5 30
    endloop
  endfacet
  facet normal -1 0 0
    outer loop
      vertex 60 0 0
      vertex 60 12.5 22.5
      vertex 60 12.5 0
    endloop
  endfacet
  facet normal -1 -0 0
    outer loop
      vertex 60 12.5 22.5
      vertex 60 0 0
      vertex 60 0 22.5
    endloop
  endfacet
  facet normal -1 0 0
    outer loop
      vertex 60 27.5 0
      vertex 60 40 22.5
      vertex 60 40 0
    endloop
  endfacet
  facet normal -1 -0 0
    outer loop
      vertex 60 40 22.5
      vertex 60 27.5 0
      vertex 60 27.5 22.5
    endloop
  endfacet
  facet normal 0 1 -0
    outer loop
      vertex 22.5 40 7.5
      vertex 15 40 22.5
      vertex 22.5 40 22.5
    endloop
  endfacet
  facet normal 0 1 0
    outer loop
      vertex 15 40 22.5
      vertex 22.5 40 7.5
      vertex 15 40 7.5
    endloop
  endfacet
  facet normal 0 1 -0
    outer loop
      vertex 37.5 40 0
      vertex 30 40 22.5
      vertex 37.5 40 22.5
    endloop
  endfacet
  facet normal 0 1 0
    outer loop
      vertex 30 40 22.5
      vertex 37.5 40 0
      vertex 30 40 0
    endloop
  endfacet
  facet normal 0 1 -0
    outer loop
      vertex 52.5 40 15
      vertex 45 40 22.5
      vertex 52.5 40 22.5
    endloop
  endfacet
  facet normal 0 1 0
    outer loop
      vertex 45 40 22.5
      vertex 52.5 40 15
      vertex 45 40 15
    endloop
  endfacet
  facet normal 0 1 0
    outer loop
      vertex 52.5 40 22.5
      vertex 67.5 40 30
      vertex 60 40 22.5
    endloop
  endfacet
  facet normal 0 1 -0
    outer loop
      vertex 67.5 40 0
      vertex 60 40 22.5
      vertex 67.5 40 30
    endloop
  endfacet
  facet normal 0 1 0
    outer loop
      vertex 60 40 22.5
      vertex 67.5 40 0
      vertex 60 40 0
    endloop
  endfacet
  facet normal 0 1 0
    outer loop
      vertex 45 40 22.5
      vertex 67.5 40 30
      vertex 52.5 40 22.5
    endloop
  endfacet
  facet normal 0 1 0
    outer loop
      vertex 37.5 40 22.5
      vertex 67.5 40 30
      vertex 45 40 22.5
    endloop
  endfacet
  facet normal 0 1 0
    outer loop
      vertex 67.5 40 30
      vertex 37.5 40 22.5
      vertex 0 40 30
    endloop
  endfacet
  facet normal 0 1 -0
    outer loop
      vertex 30 40 22.5
      vertex 0 40 30
      vertex 37.5 40 22.5
    endloop
  endfacet
  facet normal 0 1 -0
    outer loop
      vertex 22.5 40 22.5
      vertex 0 40 30
      vertex 30 40 22.5
    endloop
  endfacet
  facet normal 0 1 -0
    outer loop
      vertex 15 40 22.5
      vertex 0 40 30
      vertex 22.5 40 22.5
    endloop
  endfacet
  facet normal 0 1 -0
    outer loop
      vertex 7.5 40 22.5
      vertex 0 40 30
      vertex 15 40 22.5
    endloop
  endfacet
  facet normal 0 1 0
    outer loop
      vertex 0 40 0
      vertex 7.5 40 22.5
      vertex 7.5 40 0
    endloop
  endfacet
  facet normal 0 1 0
    outer loop
      vertex 7.5 40 22.5
      vertex 0 40 0
      vertex 0 40 30
    endloop
  endfacet
  facet normal 0 0 -1
    outer loop
      vertex 52.5 27.5 22.5
      vertex 60 40 22.5
      vertex 60 27.5 22.5
    endloop
  endfacet
  facet normal -0 0 -1
    outer loop
      vertex 60 40 22.5
      vertex 52.5 27.5 22.5
      vertex 52.5 40 22.5
    endloop
  endfacet
  facet normal 0 0 -1
    outer loop
      vertex 52.5 0 22.5
      vertex 60 12.5 22.5
      vertex 60 0 22.5
    endloop
  endfacet
  facet normal -0 0 -1
    outer loop
      vertex 60 12.5 22.5
      vertex 52.5 0 22.5
      vertex 52.5 12.5 22.5
    endloop
  endfacet
  facet normal 0 0 -1
    outer loop
      vertex 7.5 0 22.5
      vertex 15 12.5 22.5
      vertex 15 0 22.5
    endloop
  endfacet
  facet normal -0 0 -1
    outer loop
      vertex 15 12.5 22.5
      vertex 7.5 0 22.5
      vertex 7.5 12.5 22.5
    endloop
  endfacet
  facet normal 0 0 -1
    outer loop
      vertex 7.5 27.5 22.5
      vertex 15 40 22.5
      vertex 15 27.5 22.5
    endloop
  endfacet
  facet normal -0 0 -1
    outer loop
      vertex 15 40 22.5
      vertex 7.5 27.5 22.5
      vertex 7.5 40 22.5
    endloop
  endfacet
  facet normal 0 0 -1
    outer loop
      vertex 22.5 27.5 22.5
      vertex 30 40 22.5
      vertex 30 27.5 22.5
    endloop
  endfacet
  facet normal -0 0 -1
    outer loop
      vertex 30 40 22.5
      vertex 22.5 27.5 22.5
      vertex 22.5 40 22.5
    endloop
  endfacet
  facet normal 0 0 -1
    outer loop
      vertex 37.5 27.5 22.5
      vertex 45 40 22.5
      vertex 45 27.5 22.5
    endloop
  endfacet
  facet normal -0 0 -1
    outer loop
      vertex 45 40 22.5
      vertex 37.5 27.5 22.5
      vertex 37.5 40 22.5
    endloop
  endfacet
  facet normal 0 0 -1
    outer loop
      vertex 22.5 0 22.5
      vertex 30 12.5 22.5
      vertex 30 0 22.5
    endloop
  endfacet
  facet normal -0 0 -1
    outer loop
      vertex 30 12.5 22.5
      vertex 22.5 0 22.5
      vertex 22.5 12.5 22.5
    endloop
  endfacet
  facet normal 0 0 -1
    outer loop
      vertex 37.5 0 22.5
      vertex 45 12.5 22.5
      vertex 45 0 22.5
    endloop
  endfacet
  facet normal -0 0 -1
    outer loop
      vertex 45 12.5 22.5
      vertex 37.5 0 22.5
      vertex 37.5 12.5 22.5
    endloop
  endfacet
  facet normal 0 -1 0
    outer loop
      vertex 45 0 15
      vertex 52.5 0 22.5
      vertex 45 0 22.5
    endloop
  endfacet
  facet normal 0 -1 -0
    outer loop
      vertex 52.5 0 22.5
      vertex 45 0 15
      vertex 52.5 0 15
    endloop
  endfacet
  facet normal 0 -1 0
    outer loop
      vertex 30 0 0
      vertex 37.5 0 22.5
      vertex 30 0 22.5
    endloop
  endfacet
  facet normal 0 -1 -0
    outer loop
      vertex 37.5 0 22.5
      vertex 30 0 0
      vertex 37.5 0 0
    endloop
  endfacet
  facet normal 0 -1 0
    outer loop
      vertex 15 0 7.5
      vertex 22.5 0 22.5
      vertex 15 0 22.5
    endloop
  endfacet
  facet normal 0 -1 -0
    outer loop
      vertex 22.5 0 22.5
      vertex 15 0 7.5
      vertex 22.5 0 7.5
    endloop
  endfacet
  facet normal 0 -1 0
    outer loop
      vertex 15 0 22.5
      vertex 0 0 30
      vertex 7.5 0 22.5
    endloop
  endfacet
  facet normal 0 -1 0
    outer loop
      vertex 0 0 0
      vertex 7.5 0 22.5
      vertex 0 0 30
    endloop
  endfacet
  facet normal 0 -1 -0
    outer loop
      vertex 7.5 0 22.5
      vertex 0 0 0
      vertex 7.5 0 0
    endloop
  endfacet
  facet normal 0 -1 0
    outer loop
      vertex 22.5 0 22.5
      vertex 0 0 30
      vertex 15 0 22.5
    endloop
  endfacet
  facet normal 0 -1 0
    outer loop
      vertex 30 0 22.5
      vertex 0 0 30
      vertex 22.5 0 22.5
    endloop
  endfacet
  facet normal 0 -1 0
    outer loop
      vertex 0 0 30
      vertex 30 0 22.5
      vertex 67.5 0 30
    endloop
  endfacet
  facet normal 0 -1 0
    outer loop
      vertex 37.5 0 22.5
      vertex 67.5 0 30
      vertex 30 0 22.5
    endloop
  endfacet
  facet normal 0 -1 0
    outer loop
      vertex 45 0 22.5
      vertex 67.5 0 30
      vertex 37.5 0 22.5
    endloop
  endfacet
  facet normal 0 -1 0
    outer loop
      vertex 52.5 0 22.5
      vertex 67.5 0 30
      vertex 45 0 22.5
    endloop
  endfacet
  facet normal 0 -1 0
    outer loop
      vertex 60 0 22.5
      vertex 67.5 0 30
      vertex 52.5 0 22.5
    endloop
  endfacet
  facet normal 0 -1 0
    outer loop
      vertex 67.5 0 0
      vertex 60 0 22.5
      vertex 60 0 0
    endloop
  endfacet
  facet normal 0 -1 0
    outer loop
      vertex 60 0 22.5
      vertex 67.5 0 0
      vertex 67.5 0 30
    endloop
  endfacet
  facet normal 1 -0 0
    outer loop
      vertex 7.5 27.5 22.5
      vertex 7.5 40 0
      vertex 7.5 40 22.5
    endloop
  endfacet
  facet normal 1 0 0
    outer loop
      vertex 7.5 40 0
      vertex 7.5 27.5 22.5
      vertex 7.5 27.5 0
    endloop
  endfacet
  facet normal 1 -0 0
    outer loop
      vertex 7.5 0 22.5
      vertex 7.5 12.5 0
      vertex 7.5 12.5 22.5
    endloop
  endfacet
  facet normal 1 0 0
    outer loop
      vertex 7.5 12.5 0
      vertex 7.5 0 22.5
      vertex 7.5 0 0
    endloop
  endfacet
  facet normal -0 0 1
    outer loop
      vertex 0 27.5 0
      vertex 7.5 12.5 0
      vertex 7.5 27.5 0
    endloop
  endfacet
  facet normal 0 0 1
    outer loop
      vertex 7.5 12.5 0
      vertex 0 27.5 0
      vertex 0 12.5 0
    endloop
  endfacet
  facet normal 0 0 1
    outer loop
      vertex 30 12.5 0
      vertex 7.5 12.5 0
      vertex 30 0 0
    endloop
  endfacet
  facet normal 0 0 1
    outer loop
      vertex 7.5 0 0
      vertex 30 0 0
      vertex 7.5 12.5 0
    endloop
  endfacet
  facet normal 0 0 1
    outer loop
      vertex 30 0 0
      vertex 7.5 0 0
      vertex 16.5292 -21.5746 0
    endloop
  endfacet
  facet normal 0 0 1
    outer loop
      vertex 7.5 0 0
      vertex 1.93019 -11.8198 0
      vertex 16.5292 -21.5746 0
    endloop
  endfacet
  facet normal -0 0 1
    outer loop
      vertex 0 0 0
      vertex 1.93019 -11.8198 0
      vertex 7.5 0 0
    endloop
  endfacet
  facet normal 0 -0 1
    outer loop
      vertex -7.82458 2.77925 0
      vertex 0 12.5 0
      vertex -11.25 20 0
    endloop
  endfacet
  facet normal 0 0 1
    outer loop
      vertex 0 0 0
      vertex -7.82458 2.77925 0
      vertex 1.93019 -11.8198 0
    endloop
  endfacet
  facet normal 0 0 1
    outer loop
      vertex 0 12.5 0
      vertex -7.82458 2.77925 0
      vertex 0 0 0
    endloop
  endfacet
  facet normal -0 0 1
    outer loop
      vertex 30 27.5 0
      vertex 37.5 12.5 0
      vertex 37.5 27.5 0
    endloop
  endfacet
  facet normal 0 0 1
    outer loop
      vertex 37.5 12.5 0
      vertex 30 27.5 0
      vertex 30 12.5 0
    endloop
  endfacet
  facet normal 0 0 1
    outer loop
      vertex 60 12.5 0
      vertex 37.5 12.5 0
      vertex 60 0 0
    endloop
  endfacet
  facet normal 0 0 1
    outer loop
      vertex 37.5 0 0
      vertex 60 0 0
      vertex 37.5 12.5 0
    endloop
  endfacet
  facet normal 0 0 1
    outer loop
      vertex 60 0 0
      vertex 37.5 0 0
      vertex 50.9708 -21.5746 0
    endloop
  endfacet
  facet normal 0 0 1
    outer loop
      vertex 37.5 0 0
      vertex 33.75 -25 0
      vertex 50.9708 -21.5746 0
    endloop
  endfacet
  facet normal -0 0 1
    outer loop
      vertex 30 0 0
      vertex 33.75 -25 0
      vertex 37.5 0 0
    endloop
  endfacet
  facet normal 0 0 1
    outer loop
      vertex 30 27.5 0
      vertex 7.5 27.5 0
      vertex 30 12.5 0
    endloop
  endfacet
  facet normal 0 0 1
    outer loop
      vertex 7.5 12.5 0
      vertex 30 12.5 0
      vertex 7.5 27.5 0
    endloop
  endfacet
  facet normal 0 0 1
    outer loop
      vertex 30 0 0
      vertex 16.5292 -21.5746 0
      vertex 33.75 -25 0
    endloop
  endfacet
  facet normal -0 0 1
    outer loop
      vertex 1.93019 51.8198 0
      vertex 7.5 40 0
      vertex 16.5292 61.5746 0
    endloop
  endfacet
  facet normal 0 0 1
    outer loop
      vertex 1.93019 51.8198 0
      vertex 0 40 0
      vertex 7.5 40 0
    endloop
  endfacet
  facet normal -0 0 1
    outer loop
      vertex -7.82458 37.2208 0
      vertex 0 27.5 0
      vertex 0 40 0
    endloop
  endfacet
  facet normal 0 0 1
    outer loop
      vertex -11.25 20 0
      vertex 0 27.5 0
      vertex -7.82458 37.2208 0
    endloop
  endfacet
  facet normal 0 0 1
    outer loop
      vertex 0 27.5 0
      vertex -11.25 20 0
      vertex 0 12.5 0
    endloop
  endfacet
  facet normal 0 0 1
    outer loop
      vertex -7.82458 37.2208 0
      vertex 0 40 0
      vertex 1.93019 51.8198 0
    endloop
  endfacet
  facet normal -0 0 1
    outer loop
      vertex 60 27.5 0
      vertex 67.5 12.5 0
      vertex 67.5 27.5 0
    endloop
  endfacet
  facet normal 0 0 1
    outer loop
      vertex 67.5 12.5 0
      vertex 60 27.5 0
      vertex 60 12.5 0
    endloop
  endfacet
  facet normal -0 0 1
    outer loop
      vertex 67.5 27.5 0
      vertex 78.75 20 0
      vertex 75.3246 37.2208 0
    endloop
  endfacet
  facet normal 0 0 1
    outer loop
      vertex 67.5 27.5 0
      vertex 75.3246 37.2208 0
      vertex 67.5 40 0
    endloop
  endfacet
  facet normal 0 0 1
    outer loop
      vertex 65.5698 51.8198 0
      vertex 67.5 40 0
      vertex 75.3246 37.2208 0
    endloop
  endfacet
  facet normal 0 0 1
    outer loop
      vertex 65.5698 51.8198 0
      vertex 60 40 0
      vertex 67.5 40 0
    endloop
  endfacet
  facet normal -0 0 1
    outer loop
      vertex 37.5 40 0
      vertex 60 27.5 0
      vertex 60 40 0
    endloop
  endfacet
  facet normal 0 0 1
    outer loop
      vertex 37.5 27.5 0
      vertex 60 27.5 0
      vertex 37.5 40 0
    endloop
  endfacet
  facet normal 0 0 1
    outer loop
      vertex 37.5 40 0
      vertex 60 40 0
      vertex 50.9708 61.5746 0
    endloop
  endfacet
  facet normal 0 0 1
    outer loop
      vertex 50.9708 61.5746 0
      vertex 60 40 0
      vertex 65.5698 51.8198 0
    endloop
  endfacet
  facet normal 0 0 1
    outer loop
      vertex 67.5 12.5 0
      vertex 78.75 20 0
      vertex 67.5 27.5 0
    endloop
  endfacet
  facet normal 0 0 1
    outer loop
      vertex 78.75 20 0
      vertex 67.5 12.5 0
      vertex 75.3246 2.77925 0
    endloop
  endfacet
  facet normal 0 0 1
    outer loop
      vertex 67.5 0 0
      vertex 75.3246 2.77925 0
      vertex 67.5 12.5 0
    endloop
  endfacet
  facet normal -0 0 1
    outer loop
      vertex 67.5 0 0
      vertex 65.5698 -11.8198 0
      vertex 75.3246 2.77925 0
    endloop
  endfacet
  facet normal -0 0 1
    outer loop
      vertex 60 0 0
      vertex 65.5698 -11.8198 0
      vertex 67.5 0 0
    endloop
  endfacet
  facet normal 0 0 1
    outer loop
      vertex 60 0 0
      vertex 50.9708 -21.5746 0
      vertex 65.5698 -11.8198 0
    endloop
  endfacet
  facet normal 0 0 1
    outer loop
      vertex 60 27.5 0
      vertex 37.5 27.5 0
      vertex 60 12.5 0
    endloop
  endfacet
  facet normal 0 0 1
    outer loop
      vertex 37.5 12.5 0
      vertex 60 12.5 0
      vertex 37.5 27.5 0
    endloop
  endfacet
  facet normal 0 0 1
    outer loop
      vertex 33.75 65 0
      vertex 37.5 40 0
      vertex 50.9708 61.5746 0
    endloop
  endfacet
  facet normal 0 0 1
    outer loop
      vertex 33.75 65 0
      vertex 30 40 0
      vertex 37.5 40 0
    endloop
  endfacet
  facet normal 0 0 1
    outer loop
      vertex 7.5 40 0
      vertex 30 40 0
      vertex 16.5292 61.5746 0
    endloop
  endfacet
  facet normal 0 0 1
    outer loop
      vertex 30 40 0
      vertex 7.5 40 0
      vertex 30 27.5 0
    endloop
  endfacet
  facet normal 0 0 1
    outer loop
      vertex 7.5 27.5 0
      vertex 30 27.5 0
      vertex 7.5 40 0
    endloop
  endfacet
  facet normal -0 0 1
    outer loop
      vertex 16.5292 61.5746 0
      vertex 30 40 0
      vertex 33.75 65 0
    endloop
  endfacet
  facet normal -1 0 0
    outer loop
      vertex 30 0 0
      vertex 30 12.5 22.5
      vertex 30 12.5 0
    endloop
  endfacet
  facet normal -1 -0 0
    outer loop
      vertex 30 12.5 22.5
      vertex 30 0 0
      vertex 30 0 22.5
    endloop
  endfacet
  facet normal -1 0 0
    outer loop
      vertex 30 27.5 0
      vertex 30 40 22.5
      vertex 30 40 0
    endloop
  endfacet
  facet normal -1 -0 0
    outer loop
      vertex 30 40 22.5
      vertex 30 27.5 0
      vertex 30 27.5 22.5
    endloop
  endfacet
  facet normal 1 -0 0
    outer loop
      vertex 37.5 27.5 22.5
      vertex 37.5 40 0
      vertex 37.5 40 22.5
    endloop
  endfacet
  facet normal 1 0 0
    outer loop
      vertex 37.5 40 0
      vertex 37.5 27.5 22.5
      vertex 37.5 27.5 0
    endloop
  endfacet
  facet normal 1 -0 0
    outer loop
      vertex 37.5 0 22.5
      vertex 37.5 12.5 0
      vertex 37.5 12.5 22.5
    endloop
  endfacet
  facet normal 1 0 0
    outer loop
      vertex 37.5 12.5 0
      vertex 37.5 0 22.5
      vertex 37.5 0 0
    endloop
  endfacet
  facet normal 1 -0 0
    outer loop
      vertex 67.5 0 30
      vertex 67.5 12.5 0
      vertex 67.5 12.5 30
    endloop
  endfacet
  facet normal 1 0 0
    outer loop
      vertex 67.5 12.5 0
      vertex 67.5 0 30
      vertex 67.5 0 0
    endloop
  endfacet
  facet normal 1 -0 0
    outer loop
      vertex 67.5 27.5 30
      vertex 67.5 40 0
      vertex 67.5 40 30
    endloop
  endfacet
  facet normal 1 0 0
    outer loop
      vertex 67.5 40 0
      vertex 67.5 27.5 30
      vertex 67.5 27.5 0
    endloop
  endfacet
  facet normal -1 0 0
    outer loop
      vertex 15 0 7.5
      vertex 15 12.5 22.5
      vertex 15 12.5 7.5
    endloop
  endfacet
  facet normal -1 -0 0
    outer loop
      vertex 15 12.5 22.5
      vertex 15 0 7.5
      vertex 15 0 22.5
    endloop
  endfacet
  facet normal -1 0 0
    outer loop
      vertex 15 27.5 7.5
      vertex 15 40 22.5
      vertex 15 40 7.5
    endloop
  endfacet
  facet normal -1 -0 0
    outer loop
      vertex 15 40 22.5
      vertex 15 27.5 7.5
      vertex 15 27.5 22.5
    endloop
  endfacet
  facet normal 1 -0 0
    outer loop
      vertex 22.5 27.5 22.5
      vertex 22.5 40 7.5
      vertex 22.5 40 22.5
    endloop
  endfacet
  facet normal 1 0 0
    outer loop
      vertex 22.5 40 7.5
      vertex 22.5 27.5 22.5
      vertex 22.5 27.5 7.5
    endloop
  endfacet
  facet normal 1 -0 0
    outer loop
      vertex 22.5 0 22.5
      vertex 22.5 12.5 7.5
      vertex 22.5 12.5 22.5
    endloop
  endfacet
  facet normal 1 0 0
    outer loop
      vertex 22.5 12.5 7.5
      vertex 22.5 0 22.5
      vertex 22.5 0 7.5
    endloop
  endfacet
  facet normal 0 0 -1
    outer loop
      vertex 15 0 7.5
      vertex 22.5 12.5 7.5
      vertex 22.5 0 7.5
    endloop
  endfacet
  facet normal -0 0 -1
    outer loop
      vertex 22.5 12.5 7.5
      vertex 15 0 7.5
      vertex 15 12.5 7.5
    endloop
  endfacet
  facet normal 0 0 -1
    outer loop
      vertex 15 27.5 7.5
      vertex 22.5 40 7.5
      vertex 22.5 27.5 7.5
    endloop
  endfacet
  facet normal -0 0 -1
    outer loop
      vertex 22.5 40 7.5
      vertex 15 27.5 7.5
      vertex 15 40 7.5
    endloop
  endfacet
  facet normal -1 0 0
    outer loop
      vertex 45 0 15
      vertex 45 12.5 22.5
      vertex 45 12.5 15
    endloop
  endfacet
  facet normal -1 -0 0
    outer loop
      vertex 45 12.5 22.5
      vertex 45 0 15
      vertex 45 0 22.5
    endloop
  endfacet
  facet normal -1 0 0
    outer loop
      vertex 45 27.5 15
      vertex 45 40 22.5
      vertex 45 40 15
    endloop
  endfacet
  facet normal -1 -0 0
    outer loop
      vertex 45 40 22.5
      vertex 45 27.5 15
      vertex 45 27.5 22.5
    endloop
  endfacet
  facet normal 1 -0 0
    outer loop
      vertex 52.5 27.5 22.5
      vertex 52.5 40 15
      vertex 52.5 40 22.5
    endloop
  endfacet
  facet normal 1 0 0
    outer loop
      vertex 52.5 40 15
      vertex 52.5 27.5 22.5
      vertex 52.5 27.5 15
    endloop
  endfacet
  facet normal 1 -0 0
    outer loop
      vertex 52.5 0 22.5
      vertex 52.5 12.5 15
      vertex 52.5 12.5 22.5
    endloop
  endfacet
  facet normal 1 0 0
    outer loop
      vertex 52.5 12.5 15
      vertex 52.5 0 22.5
      vertex 52.5 0 15
    endloop
  endfacet
  facet normal 0 0 -1
    outer loop
      vertex 45 0 15
      vertex 52.5 12.5 15
      vertex 52.5 0 15
    endloop
  endfacet
  facet normal -0 0 -1
    outer loop
      vertex 52.5 12.5 15
      vertex 45 0 15
      vertex 45 12.5 15
    endloop
  endfacet
  facet normal 0 0 -1
    outer loop
      vertex 45 27.5 15
      vertex 52.5 40 15
      vertex 52.5 27.5 15
    endloop
  endfacet
  facet normal -0 0 -1
    outer loop
      vertex 52.5 40 15
      vertex 45 27.5 15
      vertex 45 40 15
    endloop
  endfacet
  facet normal 0 -1 0
    outer loop
      vertex 45 27.5 15
      vertex 52.5 27.5 22.5
      vertex 45 27.5 22.5
    endloop
  endfacet
  facet normal 0 -1 -0
    outer loop
      vertex 52.5 27.5 22.5
      vertex 45 27.5 15
      vertex 52.5 27.5 15
    endloop
  endfacet
  facet normal 0 -1 0
    outer loop
      vertex 30 27.5 0
      vertex 37.5 27.5 22.5
      vertex 30 27.5 22.5
    endloop
  endfacet
  facet normal 0 -1 -0
    outer loop
      vertex 37.5 27.5 22.5
      vertex 30 27.5 0
      vertex 37.5 27.5 0
    endloop
  endfacet
  facet normal 0 -1 0
    outer loop
      vertex 15 27.5 7.5
      vertex 22.5 27.5 22.5
      vertex 15 27.5 22.5
    endloop
  endfacet
  facet normal 0 -1 -0
    outer loop
      vertex 22.5 27.5 22.5
      vertex 15 27.5 7.5
      vertex 22.5 27.5 7.5
    endloop
  endfacet
  facet normal 0 -1 0
    outer loop
      vertex 15 27.5 22.5
      vertex 0 27.5 30
      vertex 7.5 27.5 22.5
    endloop
  endfacet
  facet normal 0 -1 0
    outer loop
      vertex 0 27.5 0
      vertex 7.5 27.5 22.5
      vertex 0 27.5 30
    endloop
  endfacet
  facet normal 0 -1 -0
    outer loop
      vertex 7.5 27.5 22.5
      vertex 0 27.5 0
      vertex 7.5 27.5 0
    endloop
  endfacet
  facet normal 0 -1 0
    outer loop
      vertex 22.5 27.5 22.5
      vertex 0 27.5 30
      vertex 15 27.5 22.5
    endloop
  endfacet
  facet normal 0 -1 0
    outer loop
      vertex 30 27.5 22.5
      vertex 0 27.5 30
      vertex 22.5 27.5 22.5
    endloop
  endfacet
  facet normal 0 -1 0
    outer loop
      vertex 0 27.5 30
      vertex 30 27.5 22.5
      vertex 67.5 27.5 30
    endloop
  endfacet
  facet normal 0 -1 0
    outer loop
      vertex 37.5 27.5 22.5
      vertex 67.5 27.5 30
      vertex 30 27.5 22.5
    endloop
  endfacet
  facet normal 0 -1 0
    outer loop
      vertex 45 27.5 22.5
      vertex 67.5 27.5 30
      vertex 37.5 27.5 22.5
    endloop
  endfacet
  facet normal 0 -1 0
    outer loop
      vertex 52.5 27.5 22.5
      vertex 67.5 27.5 30
      vertex 45 27.5 22.5
    endloop
  endfacet
  facet normal 0 -1 0
    outer loop
      vertex 60 27.5 22.5
      vertex 67.5 27.5 30
      vertex 52.5 27.5 22.5
    endloop
  endfacet
  facet normal 0 -1 0
    outer loop
      vertex 67.5 27.5 0
      vertex 60 27.5 22.5
      vertex 60 27.5 0
    endloop
  endfacet
  facet normal 0 -1 0
    outer loop
      vertex 60 27.5 22.5
      vertex 67.5 27.5 0
      vertex 67.5 27.5 30
    endloop
  endfacet
  facet normal 0 1 -0
    outer loop
      vertex 22.5 12.5 7.5
      vertex 15 12.5 22.5
      vertex 22.5 12.5 22.5
    endloop
  endfacet
  facet normal 0 1 0
    outer loop
      vertex 15 12.5 22.5
      vertex 22.5 12.5 7.5
      vertex 15 12.5 7.5
    endloop
  endfacet
  facet normal 0 1 -0
    outer loop
      vertex 37.5 12.5 0
      vertex 30 12.5 22.5
      vertex 37.5 12.5 22.5
    endloop
  endfacet
  facet normal 0 1 0
    outer loop
      vertex 30 12.5 22.5
      vertex 37.5 12.5 0
      vertex 30 12.5 0
    endloop
  endfacet
  facet normal 0 1 -0
    outer loop
      vertex 52.5 12.5 15
      vertex 45 12.5 22.5
      vertex 52.5 12.5 22.5
    endloop
  endfacet
  facet normal 0 1 0
    outer loop
      vertex 45 12.5 22.5
      vertex 52.5 12.5 15
      vertex 45 12.5 15
    endloop
  endfacet
  facet normal 0 1 0
    outer loop
      vertex 52.5 12.5 22.5
      vertex 67.5 12.5 30
      vertex 60 12.5 22.5
    endloop
  endfacet
  facet normal 0 1 -0
    outer loop
      vertex 67.5 12.5 0
      vertex 60 12.5 22.5
      vertex 67.5 12.5 30
    endloop
  endfacet
  facet normal 0 1 0
    outer loop
      vertex 60 12.5 22.5
      vertex 67.5 12.5 0
      vertex 60 12.5 0
    endloop
  endfacet
  facet normal 0 1 0
    outer loop
      vertex 45 12.5 22.5
      vertex 67.5 12.5 30
      vertex 52.5 12.5 22.5
    endloop
  endfacet
  facet normal 0 1 0
    outer loop
      vertex 37.5 12.5 22.5
      vertex 67.5 12.5 30
      vertex 45 12.5 22.5
    endloop
  endfacet
  facet normal 0 1 0
    outer loop
      vertex 67.5 12.5 30
      vertex 37.5 12.5 22.5
      vertex 0 12.5 30
    endloop
  endfacet
  facet normal 0 1 -0
    outer loop
      vertex 30 12.5 22.5
      vertex 0 12.5 30
      vertex 37.5 12.5 22.5
    endloop
  endfacet
  facet normal 0 1 -0
    outer loop
      vertex 22.5 12.5 22.5
      vertex 0 12.5 30
      vertex 30 12.5 22.5
    endloop
  endfacet
  facet normal 0 1 -0
    outer loop
      vertex 15 12.5 22.5
      vertex 0 12.5 30
      vertex 22.5 12.5 22.5
    endloop
  endfacet
  facet normal 0 1 -0
    outer loop
      vertex 7.5 12.5 22.5
      vertex 0 12.5 30
      vertex 15 12.5 22.5
    endloop
  endfacet
  facet normal 0 1 0
    outer loop
      vertex 0 12.5 0
      vertex 7.5 12.5 22.5
      vertex 7.5 12.5 0
    endloop
  endfacet
  facet normal 0 1 0
    outer loop
      vertex 7.5 12.5 22.5
      vertex 0 12.5 0
      vertex 0 12.5 30
    endloop
  endfacet
  facet normal 0.913036 0.181615 0.365214
    outer loop
      vertex 81.75 20 -7.5
      vertex 78.0962 38.3688 -7.5
      vertex 78.75 20 0
    endloop
  endfacet
  facet normal 0.517195 -0.774035 0.365211
    outer loop
      vertex 65.5698 -11.8198 0
      vertex 52.1188 -24.3462 -7.5
      vertex 67.6911 -13.9411 -7.5
    endloop
  endfacet
  facet normal -0.774035 -0.517194 0.365213
    outer loop
      vertex -7.82458 2.77925 0
      vertex -10.5962 1.6312 -7.5
      vertex 1.93019 -11.8198 0
    endloop
  endfacet
  facet normal 0.774035 0.517197 0.365208
    outer loop
      vertex 78.0962 38.3688 -7.5
      vertex 65.5698 51.8198 0
      vertex 75.3246 37.2208 0
    endloop
  endfacet
  facet normal -0.517197 0.774035 0.365208
    outer loop
      vertex 15.3812 64.3462 -7.5
      vertex 1.93019 51.8198 0
      vertex 16.5292 61.5746 0
    endloop
  endfacet
  facet normal 0.517197 0.774035 0.365208
    outer loop
      vertex 52.1188 64.3462 -7.5
      vertex 50.9708 61.5746 0
      vertex 65.5698 51.8198 0
    endloop
  endfacet
  facet normal 0.913038 0.181613 0.365209
    outer loop
      vertex 78.0962 38.3688 -7.5
      vertex 75.3246 37.2208 0
      vertex 78.75 20 0
    endloop
  endfacet
  facet normal 0.517197 -0.774035 0.365208
    outer loop
      vertex 65.5698 -11.8198 0
      vertex 50.9708 -21.5746 0
      vertex 52.1188 -24.3462 -7.5
    endloop
  endfacet
  facet normal 0.913036 -0.181615 0.365214
    outer loop
      vertex 78.75 20 0
      vertex 78.0962 1.6312 -7.5
      vertex 81.75 20 -7.5
    endloop
  endfacet
  facet normal -0.913036 -0.181615 0.365214
    outer loop
      vertex -11.25 20 0
      vertex -14.25 20 -7.5
      vertex -10.5962 1.6312 -7.5
    endloop
  endfacet
  facet normal -0.774035 0.517194 0.365213
    outer loop
      vertex -0.191125 53.9411 -7.5
      vertex -10.5962 38.3688 -7.5
      vertex 1.93019 51.8198 0
    endloop
  endfacet
  facet normal -0.517194 0.774035 0.365212
    outer loop
      vertex 15.3812 64.3462 -7.5
      vertex -0.191125 53.9411 -7.5
      vertex 1.93019 51.8198 0
    endloop
  endfacet
  facet normal 0.181615 0.913036 0.365214
    outer loop
      vertex 33.75 68 -7.5
      vertex 33.75 65 0
      vertex 52.1188 64.3462 -7.5
    endloop
  endfacet
  facet normal 0.517195 0.774035 0.365211
    outer loop
      vertex 67.6911 53.9411 -7.5
      vertex 52.1188 64.3462 -7.5
      vertex 65.5698 51.8198 0
    endloop
  endfacet
  facet normal 0.774035 0.517195 0.365211
    outer loop
      vertex 67.6911 53.9411 -7.5
      vertex 65.5698 51.8198 0
      vertex 78.0962 38.3688 -7.5
    endloop
  endfacet
  facet normal -0.517194 -0.774035 0.365212
    outer loop
      vertex 1.93019 -11.8198 0
      vertex -0.191125 -13.9411 -7.5
      vertex 15.3812 -24.3462 -7.5
    endloop
  endfacet
  facet normal -0.774035 -0.517194 0.365213
    outer loop
      vertex 1.93019 -11.8198 0
      vertex -10.5962 1.6312 -7.5
      vertex -0.191125 -13.9411 -7.5
    endloop
  endfacet
  facet normal -0.517197 -0.774035 0.365208
    outer loop
      vertex 16.5292 -21.5746 0
      vertex 1.93019 -11.8198 0
      vertex 15.3812 -24.3462 -7.5
    endloop
  endfacet
  facet normal -0.181615 -0.913036 0.365214
    outer loop
      vertex 33.75 -25 0
      vertex 15.3812 -24.3462 -7.5
      vertex 33.75 -28 -7.5
    endloop
  endfacet
  facet normal 0.181613 -0.913038 0.365209
    outer loop
      vertex 50.9708 -21.5746 0
      vertex 33.75 -25 0
      vertex 52.1188 -24.3462 -7.5
    endloop
  endfacet
  facet normal 0.181615 -0.913036 0.365214
    outer loop
      vertex 33.75 -25 0
      vertex 33.75 -28 -7.5
      vertex 52.1188 -24.3462 -7.5
    endloop
  endfacet
  facet normal 0.774035 -0.517195 0.365211
    outer loop
      vertex 78.0962 1.6312 -7.5
      vertex 65.5698 -11.8198 0
      vertex 67.6911 -13.9411 -7.5
    endloop
  endfacet
  facet normal -0.913037 -0.181614 0.365212
    outer loop
      vertex -7.82458 2.77925 0
      vertex -11.25 20 0
      vertex -10.5962 1.6312 -7.5
    endloop
  endfacet
  facet normal -0.913036 0.181615 0.365214
    outer loop
      vertex -10.5962 38.3688 -7.5
      vertex -14.25 20 -7.5
      vertex -11.25 20 0
    endloop
  endfacet
  facet normal 0 0 -1
    outer loop
      vertex 78.0962 1.6312 -7.5
      vertex 78.0962 38.3688 -7.5
      vertex 81.75 20 -7.5
    endloop
  endfacet
  facet normal 0 0 -1
    outer loop
      vertex 67.6911 -13.9411 -7.5
      vertex 78.0962 38.3688 -7.5
      vertex 78.0962 1.6312 -7.5
    endloop
  endfacet
  facet normal 0 0 -1
    outer loop
      vertex 67.6911 -13.9411 -7.5
      vertex 67.6911 53.9411 -7.5
      vertex 78.0962 38.3688 -7.5
    endloop
  endfacet
  facet normal 0 0 -1
    outer loop
      vertex 52.1188 -24.3462 -7.5
      vertex 67.6911 53.9411 -7.5
      vertex 67.6911 -13.9411 -7.5
    endloop
  endfacet
  facet normal 0 0 -1
    outer loop
      vertex 52.1188 -24.3462 -7.5
      vertex 52.1188 64.3462 -7.5
      vertex 67.6911 53.9411 -7.5
    endloop
  endfacet
  facet normal 0 0 -1
    outer loop
      vertex 33.75 -28 -7.5
      vertex 52.1188 64.3462 -7.5
      vertex 52.1188 -24.3462 -7.5
    endloop
  endfacet
  facet normal 0 0 -1
    outer loop
      vertex 33.75 -28 -7.5
      vertex 33.75 68 -7.5
      vertex 52.1188 64.3462 -7.5
    endloop
  endfacet
  facet normal 0 0 -1
    outer loop
      vertex 15.3812 -24.3462 -7.5
      vertex 33.75 68 -7.5
      vertex 33.75 -28 -7.5
    endloop
  endfacet
  facet normal 0 0 -1
    outer loop
      vertex 15.3812 -24.3462 -7.5
      vertex 15.3812 64.3462 -7.5
      vertex 33.75 68 -7.5
    endloop
  endfacet
  facet normal 0 0 -1
    outer loop
      vertex -0.191125 -13.9411 -7.5
      vertex 15.3812 64.3462 -7.5
      vertex 15.3812 -24.3462 -7.5
    endloop
  endfacet
  facet normal 0 0 -1
    outer loop
      vertex -0.191125 -13.9411 -7.5
      vertex -0.191125 53.9411 -7.5
      vertex 15.3812 64.3462 -7.5
    endloop
  endfacet
  facet normal 0 0 -1
    outer loop
      vertex -10.5962 1.6312 -7.5
      vertex -0.191125 53.9411 -7.5
      vertex -0.191125 -13.9411 -7.5
    endloop
  endfacet
  facet normal 0 0 -1
    outer loop
      vertex -10.5962 1.6312 -7.5
      vertex -10.5962 38.3688 -7.5
      vertex -0.191125 53.9411 -7.5
    endloop
  endfacet
  facet normal 0 -0 -1
    outer loop
      vertex -10.5962 38.3688 -7.5
      vertex -10.5962 1.6312 -7.5
      vertex -14.25 20 -7.5
    endloop
  endfacet
  facet normal -0.913037 0.181614 0.365211
    outer loop
      vertex -10.5962 38.3688 -7.5
      vertex -11.25 20 0
      vertex -7.82458 37.2208 0
    endloop
  endfacet
  facet normal -0.181615 0.913036 0.365214
    outer loop
      vertex 33.75 68 -7.5
      vertex 15.3812 64.3462 -7.5
      vertex 33.75 65 0
    endloop
  endfacet
  facet normal -0.181613 0.913038 0.365209
    outer loop
      vertex 33.75 65 0
      vertex 15.3812 64.3462 -7.5
      vertex 16.5292 61.5746 0
    endloop
  endfacet
  facet normal -0.181613 -0.913038 0.365209
    outer loop
      vertex 16.5292 -21.5746 0
      vertex 15.3812 -24.3462 -7.5
      vertex 33.75 -25 0
    endloop
  endfacet
  facet normal 0.774035 -0.517195 0.365211
    outer loop
      vertex 75.3246 2.77925 0
      vertex 65.5698 -11.8198 0
      vertex 78.0962 1.6312 -7.5
    endloop
  endfacet
  facet normal 0.913038 -0.181613 0.36521
    outer loop
      vertex 78.75 20 0
      vertex 75.3246 2.77925 0
      vertex 78.0962 1.6312 -7.5
    endloop
  endfacet
  facet normal -0.774035 0.517195 0.36521
    outer loop
      vertex 1.93019 51.8198 0
      vertex -10.5962 38.3688 -7.5
      vertex -7.82458 37.2208 0
    endloop
  endfacet
  facet normal 0.181613 0.913038 0.365209
    outer loop
      vertex 52.1188 64.3462 -7.5
      vertex 33.75 65 0
      vertex 50.9708 61.5746 0
    endloop
  endfacet
endsolid OpenSCAD_Model
