solid OpenSCAD_Model
  facet normal 0.996195 0.0871481 0
    outer loop
      vertex 11 0 25
      vertex 10.8329 1.91013 3
      vertex 10.8329 1.91013 25
    endloop
  endfacet
  facet normal 0.996195 0.0871481 0
    outer loop
      vertex 10.8329 1.91013 3
      vertex 11 0 25
      vertex 11 0 3
    endloop
  endfacet
  facet normal -0.996195 0.0871481 0
    outer loop
      vertex -11 0 0
      vertex -10.8329 1.91013 25
      vertex -10.8329 1.91013 0
    endloop
  endfacet
  facet normal -0.996195 0.0871481 0
    outer loop
      vertex -10.8329 1.91013 25
      vertex -11 0 0
      vertex -11 0 25
    endloop
  endfacet
  facet normal 0.0871481 0.996195 -0
    outer loop
      vertex 1.91013 10.8329 3
      vertex 0 11 25
      vertex 1.91013 10.8329 25
    endloop
  endfacet
  facet normal 0.0871481 0.996195 0
    outer loop
      vertex 0 11 0
      vertex 1.91013 10.8329 3
      vertex 1.91013 10.8329 0
    endloop
  endfacet
  facet normal 0.0871481 0.996195 0
    outer loop
      vertex 1.91013 10.8329 3
      vertex 0 11 0
      vertex 0 11 25
    endloop
  endfacet
  facet normal -0.0871481 -0.996195 0
    outer loop
      vertex -1.91013 -10.8329 0
      vertex 0 -11 25
      vertex -1.91013 -10.8329 25
    endloop
  endfacet
  facet normal -0.0871481 -0.996195 -0
    outer loop
      vertex 0 -11 25
      vertex -1.91013 -10.8329 0
      vertex 0 -11 0
    endloop
  endfacet
  facet normal 0.707107 0.707107 0
    outer loop
      vertex 8.42649 7.07066 25
      vertex 7.07066 8.42649 3
      vertex 7.07066 8.42649 25
    endloop
  endfacet
  facet normal 0.707107 0.707107 0
    outer loop
      vertex 7.07066 8.42649 3
      vertex 8.42649 7.07066 25
      vertex 8.42649 7.07066 3
    endloop
  endfacet
  facet normal -0.573577 0.819152 0
    outer loop
      vertex -5.5 9.52628 0
      vertex -7.07066 8.42649 25
      vertex -5.5 9.52628 25
    endloop
  endfacet
  facet normal -0.573577 0.819152 0
    outer loop
      vertex -7.07066 8.42649 25
      vertex -5.5 9.52628 0
      vertex -7.07066 8.42649 0
    endloop
  endfacet
  facet normal -0.258836 0.965921 0
    outer loop
      vertex -1.91013 10.8329 0
      vertex -3.76222 10.3366 25
      vertex -1.91013 10.8329 25
    endloop
  endfacet
  facet normal -0.258836 0.965921 0
    outer loop
      vertex -3.76222 10.3366 25
      vertex -1.91013 10.8329 0
      vertex -3.76222 10.3366 0
    endloop
  endfacet
  facet normal 0 0 1
    outer loop
      vertex 27.0608 0.694592 3
      vertex 11 0 3
      vertex 27 0 3
    endloop
  endfacet
  facet normal 0 0 1
    outer loop
      vertex 10.8329 1.91013 3
      vertex 27.0608 0.694592 3
      vertex 27.2412 1.36808 3
    endloop
  endfacet
  facet normal 0 0 1
    outer loop
      vertex 10.3366 3.76222 3
      vertex 27.2412 1.36808 3
      vertex 27.5359 2 3
    endloop
  endfacet
  facet normal 0 0 1
    outer loop
      vertex 10.3366 3.76222 3
      vertex 27.5359 2 3
      vertex 27.9358 2.57115 3
    endloop
  endfacet
  facet normal 0 0 1
    outer loop
      vertex 9.52628 5.5 3
      vertex 27.9358 2.57115 3
      vertex 28.4288 3.06418 3
    endloop
  endfacet
  facet normal 0 0 1
    outer loop
      vertex 8.42649 7.07066 3
      vertex 28.4288 3.06418 3
      vertex 29 3.4641 3
    endloop
  endfacet
  facet normal 0 0 1
    outer loop
      vertex 8.42649 7.07066 3
      vertex 29 3.4641 3
      vertex 29.6319 3.75877 3
    endloop
  endfacet
  facet normal 0 0 1
    outer loop
      vertex 7.07066 8.42649 3
      vertex 29.6319 3.75877 3
      vertex 30.3054 3.93923 3
    endloop
  endfacet
  facet normal 0 0 1
    outer loop
      vertex 27.0608 0.694592 3
      vertex 10.8329 1.91013 3
      vertex 11 0 3
    endloop
  endfacet
  facet normal 0 0 1
    outer loop
      vertex 27.2412 1.36808 3
      vertex 10.3366 3.76222 3
      vertex 10.8329 1.91013 3
    endloop
  endfacet
  facet normal 0 0 1
    outer loop
      vertex 5.5 9.52628 3
      vertex 30.3054 3.93923 3
      vertex 31 4 3
    endloop
  endfacet
  facet normal 0 0 1
    outer loop
      vertex 27.9358 2.57115 3
      vertex 9.52628 5.5 3
      vertex 10.3366 3.76222 3
    endloop
  endfacet
  facet normal 0 0 1
    outer loop
      vertex 28.4288 3.06418 3
      vertex 8.42649 7.07066 3
      vertex 9.52628 5.5 3
    endloop
  endfacet
  facet normal 0 0 1
    outer loop
      vertex 3.76222 10.3366 3
      vertex 31 4 3
      vertex 31.6946 3.93923 3
    endloop
  endfacet
  facet normal 0 0 1
    outer loop
      vertex 29.6319 3.75877 3
      vertex 7.07066 8.42649 3
      vertex 8.42649 7.07066 3
    endloop
  endfacet
  facet normal 0 0 1
    outer loop
      vertex 30.3054 3.93923 3
      vertex 5.5 9.52628 3
      vertex 7.07066 8.42649 3
    endloop
  endfacet
  facet normal 0 0 1
    outer loop
      vertex 31 4 3
      vertex 3.76222 10.3366 3
      vertex 5.5 9.52628 3
    endloop
  endfacet
  facet normal -0 -0 1
    outer loop
      vertex 3.76222 10.3366 3
      vertex 31.6946 3.93923 3
      vertex 1.91013 10.8329 3
    endloop
  endfacet
  facet normal -0 0 1
    outer loop
      vertex 11 0 3
      vertex 27.0608 -0.694592 3
      vertex 27 0 3
    endloop
  endfacet
  facet normal 0 0 1
    outer loop
      vertex 10.8329 -1.91013 3
      vertex 27.0608 -0.694592 3
      vertex 11 0 3
    endloop
  endfacet
  facet normal 0 0 1
    outer loop
      vertex 27.0608 -0.694592 3
      vertex 10.8329 -1.91013 3
      vertex 27.2412 -1.36808 3
    endloop
  endfacet
  facet normal 0 0 1
    outer loop
      vertex 10.3366 -3.76222 3
      vertex 27.2412 -1.36808 3
      vertex 10.8329 -1.91013 3
    endloop
  endfacet
  facet normal 0 0 1
    outer loop
      vertex 27.2412 -1.36808 3
      vertex 10.3366 -3.76222 3
      vertex 27.5359 -2 3
    endloop
  endfacet
  facet normal 0 0 1
    outer loop
      vertex 27.5359 -2 3
      vertex 10.3366 -3.76222 3
      vertex 27.9358 -2.57115 3
    endloop
  endfacet
  facet normal 0 0 1
    outer loop
      vertex 9.52628 -5.5 3
      vertex 27.9358 -2.57115 3
      vertex 10.3366 -3.76222 3
    endloop
  endfacet
  facet normal 0 0 1
    outer loop
      vertex 27.9358 -2.57115 3
      vertex 9.52628 -5.5 3
      vertex 28.4288 -3.06418 3
    endloop
  endfacet
  facet normal 0 0 1
    outer loop
      vertex 8.42649 -7.07066 3
      vertex 28.4288 -3.06418 3
      vertex 9.52628 -5.5 3
    endloop
  endfacet
  facet normal 0 0 1
    outer loop
      vertex 28.4288 -3.06418 3
      vertex 8.42649 -7.07066 3
      vertex 29 -3.4641 3
    endloop
  endfacet
  facet normal 0 0 1
    outer loop
      vertex 29 -3.4641 3
      vertex 8.42649 -7.07066 3
      vertex 29.6319 -3.75877 3
    endloop
  endfacet
  facet normal 0 0 1
    outer loop
      vertex 7.07066 -8.42649 3
      vertex 29.6319 -3.75877 3
      vertex 8.42649 -7.07066 3
    endloop
  endfacet
  facet normal 0 0 1
    outer loop
      vertex 29.6319 -3.75877 3
      vertex 7.07066 -8.42649 3
      vertex 30.3054 -3.93923 3
    endloop
  endfacet
  facet normal 0 0 1
    outer loop
      vertex 5.5 -9.52628 3
      vertex 30.3054 -3.93923 3
      vertex 7.07066 -8.42649 3
    endloop
  endfacet
  facet normal 0 0 1
    outer loop
      vertex 30.3054 -3.93923 3
      vertex 5.5 -9.52628 3
      vertex 31 -4 3
    endloop
  endfacet
  facet normal 0 0 1
    outer loop
      vertex 3.76222 -10.3366 3
      vertex 31 -4 3
      vertex 5.5 -9.52628 3
    endloop
  endfacet
  facet normal -0 0 1
    outer loop
      vertex 31 -4 3
      vertex 3.76222 -10.3366 3
      vertex 31.6946 -3.93923 3
    endloop
  endfacet
  facet normal 0 0 1
    outer loop
      vertex 31.6946 -3.93923 3
      vertex 3.76222 -10.3366 3
      vertex 1.91013 -10.8329 3
    endloop
  endfacet
  facet normal 0.906312 0.42261 0
    outer loop
      vertex 10.3366 3.76222 25
      vertex 9.52628 5.5 3
      vertex 9.52628 5.5 25
    endloop
  endfacet
  facet normal 0.906312 0.42261 0
    outer loop
      vertex 9.52628 5.5 3
      vertex 10.3366 3.76222 25
      vertex 10.3366 3.76222 3
    endloop
  endfacet
  facet normal 0.965921 0.258836 0
    outer loop
      vertex 10.8329 1.91013 25
      vertex 10.3366 3.76222 3
      vertex 10.3366 3.76222 25
    endloop
  endfacet
  facet normal 0.965921 0.258836 0
    outer loop
      vertex 10.3366 3.76222 3
      vertex 10.8329 1.91013 25
      vertex 10.8329 1.91013 3
    endloop
  endfacet
  facet normal 0.819152 0.573577 0
    outer loop
      vertex 9.52628 5.5 25
      vertex 8.42649 7.07066 3
      vertex 8.42649 7.07066 25
    endloop
  endfacet
  facet normal 0.819152 0.573577 0
    outer loop
      vertex 8.42649 7.07066 3
      vertex 9.52628 5.5 25
      vertex 9.52628 5.5 3
    endloop
  endfacet
  facet normal 0.42261 0.906312 -0
    outer loop
      vertex 5.5 9.52628 3
      vertex 3.76222 10.3366 25
      vertex 5.5 9.52628 25
    endloop
  endfacet
  facet normal 0.42261 0.906312 0
    outer loop
      vertex 3.76222 10.3366 25
      vertex 5.5 9.52628 3
      vertex 3.76222 10.3366 3
    endloop
  endfacet
  facet normal 0.258836 0.965921 -0
    outer loop
      vertex 3.76222 10.3366 3
      vertex 1.91013 10.8329 25
      vertex 3.76222 10.3366 25
    endloop
  endfacet
  facet normal 0.258836 0.965921 0
    outer loop
      vertex 1.91013 10.8329 25
      vertex 3.76222 10.3366 3
      vertex 1.91013 10.8329 3
    endloop
  endfacet
  facet normal 0.573577 0.819152 -0
    outer loop
      vertex 7.07066 8.42649 3
      vertex 5.5 9.52628 25
      vertex 7.07066 8.42649 25
    endloop
  endfacet
  facet normal 0.573577 0.819152 0
    outer loop
      vertex 5.5 9.52628 25
      vertex 7.07066 8.42649 3
      vertex 5.5 9.52628 3
    endloop
  endfacet
  facet normal -0.906312 0.42261 0
    outer loop
      vertex -10.3366 3.76222 0
      vertex -9.52628 5.5 25
      vertex -9.52628 5.5 0
    endloop
  endfacet
  facet normal -0.906312 0.42261 0
    outer loop
      vertex -9.52628 5.5 25
      vertex -10.3366 3.76222 0
      vertex -10.3366 3.76222 25
    endloop
  endfacet
  facet normal -0.819152 0.573577 0
    outer loop
      vertex -9.52628 5.5 0
      vertex -8.42649 7.07066 25
      vertex -8.42649 7.07066 0
    endloop
  endfacet
  facet normal -0.819152 0.573577 0
    outer loop
      vertex -8.42649 7.07066 25
      vertex -9.52628 5.5 0
      vertex -9.52628 5.5 25
    endloop
  endfacet
  facet normal -0.965921 0.258836 0
    outer loop
      vertex -10.8329 1.91013 0
      vertex -10.3366 3.76222 25
      vertex -10.3366 3.76222 0
    endloop
  endfacet
  facet normal -0.965921 0.258836 0
    outer loop
      vertex -10.3366 3.76222 25
      vertex -10.8329 1.91013 0
      vertex -10.8329 1.91013 25
    endloop
  endfacet
  facet normal -0 0 1
    outer loop
      vertex 4.98939 0.00694588 25
      vertex 11 0 25
      vertex 10.8329 1.91013 25
    endloop
  endfacet
  facet normal 0 0 1
    outer loop
      vertex 4.91419 0.866504 25
      vertex 10.8329 1.91013 25
      vertex 10.3366 3.76222 25
    endloop
  endfacet
  facet normal 0 0 1
    outer loop
      vertex 11 0 25
      vertex 4.98939 0.00694588 25
      vertex 4.99 0 25
    endloop
  endfacet
  facet normal 0 0 1
    outer loop
      vertex 4.68907 1.70668 25
      vertex 10.3366 3.76222 25
      vertex 9.52628 5.5 25
    endloop
  endfacet
  facet normal 0 0 1
    outer loop
      vertex 4.98939 -0.00694588 25
      vertex 11 0 25
      vertex 4.99 0 25
    endloop
  endfacet
  facet normal 0 0 1
    outer loop
      vertex 4.31747 2.50071 25
      vertex 9.52628 5.5 25
      vertex 8.42649 7.07066 25
    endloop
  endfacet
  facet normal 0 0 1
    outer loop
      vertex 11 0 25
      vertex 4.98939 -0.00694588 25
      vertex 10.8329 -1.91013 25
    endloop
  endfacet
  facet normal 0 0 1
    outer loop
      vertex 3.82256 3.20751 25
      vertex 8.42649 7.07066 25
      vertex 7.07066 8.42649 25
    endloop
  endfacet
  facet normal -0 0 1
    outer loop
      vertex 4.91419 -0.866504 25
      vertex 10.8329 -1.91013 25
      vertex 4.98939 -0.00694588 25
    endloop
  endfacet
  facet normal 0 0 1
    outer loop
      vertex 3.20751 3.82256 25
      vertex 7.07066 8.42649 25
      vertex 5.5 9.52628 25
    endloop
  endfacet
  facet normal 0 0 1
    outer loop
      vertex 10.8329 -1.91013 25
      vertex 4.91419 -0.866504 25
      vertex 10.3366 -3.76222 25
    endloop
  endfacet
  facet normal -0 0 1
    outer loop
      vertex 4.68907 -1.70668 25
      vertex 10.3366 -3.76222 25
      vertex 4.69087 -1.69995 25
    endloop
  endfacet
  facet normal -0 0 1
    outer loop
      vertex 4.69087 -1.69995 25
      vertex 10.3366 -3.76222 25
      vertex 4.91419 -0.866504 25
    endloop
  endfacet
  facet normal 0 0 1
    outer loop
      vertex 10.8329 1.91013 25
      vertex 4.91419 0.866504 25
      vertex 4.98939 0.00694588 25
    endloop
  endfacet
  facet normal 0 0 1
    outer loop
      vertex 10.3366 3.76222 25
      vertex 4.69087 1.69995 25
      vertex 4.91419 0.866504 25
    endloop
  endfacet
  facet normal 0 0 1
    outer loop
      vertex 10.3366 3.76222 25
      vertex 4.68907 1.70668 25
      vertex 4.69087 1.69995 25
    endloop
  endfacet
  facet normal 0 0 1
    outer loop
      vertex 9.52628 5.5 25
      vertex 4.32441 2.48868 25
      vertex 4.68907 1.70668 25
    endloop
  endfacet
  facet normal 0 0 1
    outer loop
      vertex 9.52628 5.5 25
      vertex 4.32147 2.495 25
      vertex 4.32441 2.48868 25
    endloop
  endfacet
  facet normal 0 0 1
    outer loop
      vertex 9.52628 5.5 25
      vertex 4.31747 2.50071 25
      vertex 4.32147 2.495 25
    endloop
  endfacet
  facet normal 0 0 1
    outer loop
      vertex 8.42649 7.07066 25
      vertex 3.82256 3.20751 25
      vertex 4.31747 2.50071 25
    endloop
  endfacet
  facet normal 0 0 1
    outer loop
      vertex 2.48868 4.32441 25
      vertex 5.5 9.52628 25
      vertex 3.76222 10.3366 25
    endloop
  endfacet
  facet normal 0 0 1
    outer loop
      vertex 7.07066 8.42649 25
      vertex 3.20751 3.82256 25
      vertex 3.82256 3.20751 25
    endloop
  endfacet
  facet normal 0 0 1
    outer loop
      vertex 5.5 9.52628 25
      vertex 2.50071 4.31747 25
      vertex 3.20751 3.82256 25
    endloop
  endfacet
  facet normal 0 0 1
    outer loop
      vertex 5.5 9.52628 25
      vertex 2.495 4.32147 25
      vertex 2.50071 4.31747 25
    endloop
  endfacet
  facet normal 0 0 1
    outer loop
      vertex 5.5 9.52628 25
      vertex 2.48868 4.32441 25
      vertex 2.495 4.32147 25
    endloop
  endfacet
  facet normal 0 0 1
    outer loop
      vertex 1.69995 4.69087 25
      vertex 3.76222 10.3366 25
      vertex 1.91013 10.8329 25
    endloop
  endfacet
  facet normal 0 0 1
    outer loop
      vertex 3.76222 10.3366 25
      vertex 1.70668 4.68907 25
      vertex 2.48868 4.32441 25
    endloop
  endfacet
  facet normal 0 0 1
    outer loop
      vertex 3.76222 10.3366 25
      vertex 1.69995 4.69087 25
      vertex 1.70668 4.68907 25
    endloop
  endfacet
  facet normal 0 0 1
    outer loop
      vertex 1.91013 10.8329 25
      vertex 0.866504 4.91419 25
      vertex 1.69995 4.69087 25
    endloop
  endfacet
  facet normal 0 0 1
    outer loop
      vertex 1.91013 10.8329 25
      vertex 0.00694588 4.98939 25
      vertex 0.866504 4.91419 25
    endloop
  endfacet
  facet normal 0 0 1
    outer loop
      vertex 0 11 25
      vertex 0.00694588 4.98939 25
      vertex 1.91013 10.8329 25
    endloop
  endfacet
  facet normal 0 0 1
    outer loop
      vertex 0 11 25
      vertex 0 4.99 25
      vertex 0.00694588 4.98939 25
    endloop
  endfacet
  facet normal 0 0 1
    outer loop
      vertex 0 11 25
      vertex -0.00694588 4.98939 25
      vertex 0 4.99 25
    endloop
  endfacet
  facet normal 0 0 1
    outer loop
      vertex 0 11 25
      vertex -0.866504 4.91419 25
      vertex -0.00694588 4.98939 25
    endloop
  endfacet
  facet normal -0 0 1
    outer loop
      vertex -1.91013 10.8329 25
      vertex -0.866504 4.91419 25
      vertex 0 11 25
    endloop
  endfacet
  facet normal 0 0 1
    outer loop
      vertex -0.866504 4.91419 25
      vertex -1.91013 10.8329 25
      vertex -1.69995 4.69087 25
    endloop
  endfacet
  facet normal -0 0 1
    outer loop
      vertex -3.76222 10.3366 25
      vertex -1.69995 4.69087 25
      vertex -1.91013 10.8329 25
    endloop
  endfacet
  facet normal 0 0 1
    outer loop
      vertex -1.69995 4.69087 25
      vertex -3.76222 10.3366 25
      vertex -1.70668 4.68907 25
    endloop
  endfacet
  facet normal 0 0 1
    outer loop
      vertex -1.70668 4.68907 25
      vertex -3.76222 10.3366 25
      vertex -2.48868 4.32441 25
    endloop
  endfacet
  facet normal -0 0 1
    outer loop
      vertex -5.5 9.52628 25
      vertex -2.48868 4.32441 25
      vertex -3.76222 10.3366 25
    endloop
  endfacet
  facet normal 0 0 1
    outer loop
      vertex -2.48868 4.32441 25
      vertex -5.5 9.52628 25
      vertex -2.495 4.32147 25
    endloop
  endfacet
  facet normal 0 0 1
    outer loop
      vertex -2.495 4.32147 25
      vertex -5.5 9.52628 25
      vertex -2.50071 4.31747 25
    endloop
  endfacet
  facet normal 0 0 1
    outer loop
      vertex -2.50071 4.31747 25
      vertex -5.5 9.52628 25
      vertex -3.20751 3.82256 25
    endloop
  endfacet
  facet normal -0 0 1
    outer loop
      vertex -7.07066 8.42649 25
      vertex -3.20751 3.82256 25
      vertex -5.5 9.52628 25
    endloop
  endfacet
  facet normal 0 0 1
    outer loop
      vertex -3.20751 3.82256 25
      vertex -7.07066 8.42649 25
      vertex -3.82256 3.20751 25
    endloop
  endfacet
  facet normal -0 0 1
    outer loop
      vertex -8.42649 7.07066 25
      vertex -3.82256 3.20751 25
      vertex -7.07066 8.42649 25
    endloop
  endfacet
  facet normal 0 0 1
    outer loop
      vertex -3.82256 3.20751 25
      vertex -8.42649 7.07066 25
      vertex -4.31747 2.50071 25
    endloop
  endfacet
  facet normal -0 0 1
    outer loop
      vertex -9.52628 5.5 25
      vertex -4.31747 2.50071 25
      vertex -8.42649 7.07066 25
    endloop
  endfacet
  facet normal 0 0 1
    outer loop
      vertex -4.31747 2.50071 25
      vertex -9.52628 5.5 25
      vertex -4.32147 2.495 25
    endloop
  endfacet
  facet normal 0 0 1
    outer loop
      vertex -10.8329 1.91013 25
      vertex -4.98939 0.00694588 25
      vertex -4.91419 0.866504 25
    endloop
  endfacet
  facet normal 0 0 1
    outer loop
      vertex -4.32441 2.48868 25
      vertex -9.52628 5.5 25
      vertex -4.68907 1.70668 25
    endloop
  endfacet
  facet normal 0 0 1
    outer loop
      vertex -4.32147 2.495 25
      vertex -9.52628 5.5 25
      vertex -4.32441 2.48868 25
    endloop
  endfacet
  facet normal 0 0 1
    outer loop
      vertex 10.3366 -3.76222 25
      vertex 4.68907 -1.70668 25
      vertex 9.52628 -5.5 25
    endloop
  endfacet
  facet normal -0 0 1
    outer loop
      vertex 4.32441 -2.48868 25
      vertex 9.52628 -5.5 25
      vertex 4.68907 -1.70668 25
    endloop
  endfacet
  facet normal -0 0 1
    outer loop
      vertex 4.32147 -2.495 25
      vertex 9.52628 -5.5 25
      vertex 4.32441 -2.48868 25
    endloop
  endfacet
  facet normal -0 0 1
    outer loop
      vertex 4.31747 -2.50071 25
      vertex 9.52628 -5.5 25
      vertex 4.32147 -2.495 25
    endloop
  endfacet
  facet normal 0 0 1
    outer loop
      vertex 9.52628 -5.5 25
      vertex 4.31747 -2.50071 25
      vertex 8.42649 -7.07066 25
    endloop
  endfacet
  facet normal -0 0 1
    outer loop
      vertex 3.82256 -3.20751 25
      vertex 8.42649 -7.07066 25
      vertex 4.31747 -2.50071 25
    endloop
  endfacet
  facet normal 0 0 1
    outer loop
      vertex 8.42649 -7.07066 25
      vertex 3.82256 -3.20751 25
      vertex 7.07066 -8.42649 25
    endloop
  endfacet
  facet normal -0 0 1
    outer loop
      vertex 3.20751 -3.82256 25
      vertex 7.07066 -8.42649 25
      vertex 3.82256 -3.20751 25
    endloop
  endfacet
  facet normal 0 0 1
    outer loop
      vertex 7.07066 -8.42649 25
      vertex 3.20751 -3.82256 25
      vertex 5.5 -9.52628 25
    endloop
  endfacet
  facet normal -0 0 1
    outer loop
      vertex 2.50071 -4.31747 25
      vertex 5.5 -9.52628 25
      vertex 3.20751 -3.82256 25
    endloop
  endfacet
  facet normal -0 0 1
    outer loop
      vertex 2.495 -4.32147 25
      vertex 5.5 -9.52628 25
      vertex 2.50071 -4.31747 25
    endloop
  endfacet
  facet normal -0 0 1
    outer loop
      vertex 2.48868 -4.32441 25
      vertex 5.5 -9.52628 25
      vertex 2.495 -4.32147 25
    endloop
  endfacet
  facet normal 0 0 1
    outer loop
      vertex 5.5 -9.52628 25
      vertex 2.48868 -4.32441 25
      vertex 3.76222 -10.3366 25
    endloop
  endfacet
  facet normal -0 0 1
    outer loop
      vertex 1.70668 -4.68907 25
      vertex 3.76222 -10.3366 25
      vertex 2.48868 -4.32441 25
    endloop
  endfacet
  facet normal -0 0 1
    outer loop
      vertex 1.69995 -4.69087 25
      vertex 3.76222 -10.3366 25
      vertex 1.70668 -4.68907 25
    endloop
  endfacet
  facet normal 0 0 1
    outer loop
      vertex 3.76222 -10.3366 25
      vertex 1.69995 -4.69087 25
      vertex 1.91013 -10.8329 25
    endloop
  endfacet
  facet normal -0 0 1
    outer loop
      vertex 0.866504 -4.91419 25
      vertex 1.91013 -10.8329 25
      vertex 1.69995 -4.69087 25
    endloop
  endfacet
  facet normal -0 0 1
    outer loop
      vertex 0.00694588 -4.98939 25
      vertex 1.91013 -10.8329 25
      vertex 0.866504 -4.91419 25
    endloop
  endfacet
  facet normal 0 0 1
    outer loop
      vertex 0 -11 25
      vertex 0.00694588 -4.98939 25
      vertex 0 -4.99 25
    endloop
  endfacet
  facet normal 0 0 1
    outer loop
      vertex 0.00694588 -4.98939 25
      vertex 0 -11 25
      vertex 1.91013 -10.8329 25
    endloop
  endfacet
  facet normal 0 0 1
    outer loop
      vertex -0.00694588 -4.98939 25
      vertex 0 -11 25
      vertex 0 -4.99 25
    endloop
  endfacet
  facet normal 0 0 1
    outer loop
      vertex -0.866504 -4.91419 25
      vertex 0 -11 25
      vertex -0.00694588 -4.98939 25
    endloop
  endfacet
  facet normal 0 0 1
    outer loop
      vertex -1.91013 -10.8329 25
      vertex -0.866504 -4.91419 25
      vertex -1.69995 -4.69087 25
    endloop
  endfacet
  facet normal 0 0 1
    outer loop
      vertex -3.76222 -10.3366 25
      vertex -1.69995 -4.69087 25
      vertex -1.70668 -4.68907 25
    endloop
  endfacet
  facet normal 0 0 1
    outer loop
      vertex -0.866504 -4.91419 25
      vertex -1.91013 -10.8329 25
      vertex 0 -11 25
    endloop
  endfacet
  facet normal 0 0 1
    outer loop
      vertex -3.76222 -10.3366 25
      vertex -1.70668 -4.68907 25
      vertex -2.48868 -4.32441 25
    endloop
  endfacet
  facet normal 0 0 1
    outer loop
      vertex -5.5 -9.52628 25
      vertex -2.48868 -4.32441 25
      vertex -2.495 -4.32147 25
    endloop
  endfacet
  facet normal 0 0 1
    outer loop
      vertex -5.5 -9.52628 25
      vertex -2.495 -4.32147 25
      vertex -2.50071 -4.31747 25
    endloop
  endfacet
  facet normal 0 0 1
    outer loop
      vertex -5.5 -9.52628 25
      vertex -2.50071 -4.31747 25
      vertex -3.20751 -3.82256 25
    endloop
  endfacet
  facet normal 0 0 1
    outer loop
      vertex -1.69995 -4.69087 25
      vertex -3.76222 -10.3366 25
      vertex -1.91013 -10.8329 25
    endloop
  endfacet
  facet normal 0 0 1
    outer loop
      vertex -7.07066 -8.42649 25
      vertex -3.20751 -3.82256 25
      vertex -3.82256 -3.20751 25
    endloop
  endfacet
  facet normal 0 0 1
    outer loop
      vertex -8.42649 -7.07066 25
      vertex -3.82256 -3.20751 25
      vertex -4.31747 -2.50071 25
    endloop
  endfacet
  facet normal 0 0 1
    outer loop
      vertex -9.52628 -5.5 25
      vertex -4.31747 -2.50071 25
      vertex -4.32147 -2.495 25
    endloop
  endfacet
  facet normal 0 0 1
    outer loop
      vertex -9.52628 -5.5 25
      vertex -4.32147 -2.495 25
      vertex -4.32441 -2.48868 25
    endloop
  endfacet
  facet normal 0 0 1
    outer loop
      vertex -9.52628 -5.5 25
      vertex -4.32441 -2.48868 25
      vertex -4.68907 -1.70668 25
    endloop
  endfacet
  facet normal 0 0 1
    outer loop
      vertex -10.3366 -3.76222 25
      vertex -4.68907 -1.70668 25
      vertex -4.69087 -1.69995 25
    endloop
  endfacet
  facet normal 0 0 1
    outer loop
      vertex -10.3366 -3.76222 25
      vertex -4.69087 -1.69995 25
      vertex -4.91419 -0.866504 25
    endloop
  endfacet
  facet normal -0 0 1
    outer loop
      vertex -11 0 25
      vertex -4.98939 -0.00694588 25
      vertex -4.99 0 25
    endloop
  endfacet
  facet normal 0 0 1
    outer loop
      vertex -2.48868 -4.32441 25
      vertex -5.5 -9.52628 25
      vertex -3.76222 -10.3366 25
    endloop
  endfacet
  facet normal 0 0 1
    outer loop
      vertex -4.98939 -0.00694588 25
      vertex -10.8329 -1.91013 25
      vertex -4.91419 -0.866504 25
    endloop
  endfacet
  facet normal -0 0 1
    outer loop
      vertex -10.3366 3.76222 25
      vertex -4.68907 1.70668 25
      vertex -9.52628 5.5 25
    endloop
  endfacet
  facet normal 0 0 1
    outer loop
      vertex -4.68907 1.70668 25
      vertex -10.3366 3.76222 25
      vertex -4.69087 1.69995 25
    endloop
  endfacet
  facet normal 0 0 1
    outer loop
      vertex -3.20751 -3.82256 25
      vertex -7.07066 -8.42649 25
      vertex -5.5 -9.52628 25
    endloop
  endfacet
  facet normal 0 0 1
    outer loop
      vertex -4.69087 1.69995 25
      vertex -10.3366 3.76222 25
      vertex -4.91419 0.866504 25
    endloop
  endfacet
  facet normal 0 0 1
    outer loop
      vertex -3.82256 -3.20751 25
      vertex -8.42649 -7.07066 25
      vertex -7.07066 -8.42649 25
    endloop
  endfacet
  facet normal -0 0 1
    outer loop
      vertex -10.8329 1.91013 25
      vertex -4.91419 0.866504 25
      vertex -10.3366 3.76222 25
    endloop
  endfacet
  facet normal 0 0 1
    outer loop
      vertex -4.31747 -2.50071 25
      vertex -9.52628 -5.5 25
      vertex -8.42649 -7.07066 25
    endloop
  endfacet
  facet normal 0 0 1
    outer loop
      vertex -11 0 25
      vertex -4.98939 0.00694588 25
      vertex -10.8329 1.91013 25
    endloop
  endfacet
  facet normal 0 0 1
    outer loop
      vertex -4.68907 -1.70668 25
      vertex -10.3366 -3.76222 25
      vertex -9.52628 -5.5 25
    endloop
  endfacet
  facet normal 0 0 1
    outer loop
      vertex -4.98939 0.00694588 25
      vertex -11 0 25
      vertex -4.99 0 25
    endloop
  endfacet
  facet normal 0 0 1
    outer loop
      vertex -4.91419 -0.866504 25
      vertex -10.8329 -1.91013 25
      vertex -10.3366 -3.76222 25
    endloop
  endfacet
  facet normal 0 0 1
    outer loop
      vertex -4.98939 -0.00694588 25
      vertex -11 0 25
      vertex -10.8329 -1.91013 25
    endloop
  endfacet
  facet normal -0.42261 0.906312 0
    outer loop
      vertex -3.76222 10.3366 0
      vertex -5.5 9.52628 25
      vertex -3.76222 10.3366 25
    endloop
  endfacet
  facet normal -0.42261 0.906312 0
    outer loop
      vertex -5.5 9.52628 25
      vertex -3.76222 10.3366 0
      vertex -5.5 9.52628 0
    endloop
  endfacet
  facet normal -0.0871481 0.996195 0
    outer loop
      vertex 0 11 0
      vertex -1.91013 10.8329 25
      vertex 0 11 25
    endloop
  endfacet
  facet normal -0.0871481 0.996195 0
    outer loop
      vertex -1.91013 10.8329 25
      vertex 0 11 0
      vertex -1.91013 10.8329 0
    endloop
  endfacet
  facet normal 0.0871481 -0.996195 0
    outer loop
      vertex 0 -11 25
      vertex 1.91013 -10.8329 3
      vertex 1.91013 -10.8329 25
    endloop
  endfacet
  facet normal 0.0871481 -0.996195 0
    outer loop
      vertex 0 -11 0
      vertex 1.91013 -10.8329 3
      vertex 0 -11 25
    endloop
  endfacet
  facet normal 0.0871481 -0.996195 0
    outer loop
      vertex 1.91013 -10.8329 3
      vertex 0 -11 0
      vertex 1.91013 -10.8329 0
    endloop
  endfacet
  facet normal 0.707107 -0.707107 0
    outer loop
      vertex 7.07066 -8.42649 25
      vertex 8.42649 -7.07066 3
      vertex 8.42649 -7.07066 25
    endloop
  endfacet
  facet normal 0.707107 -0.707107 0
    outer loop
      vertex 8.42649 -7.07066 3
      vertex 7.07066 -8.42649 25
      vertex 7.07066 -8.42649 3
    endloop
  endfacet
  facet normal 0.42261 -0.906312 0
    outer loop
      vertex 3.76222 -10.3366 3
      vertex 5.5 -9.52628 25
      vertex 3.76222 -10.3366 25
    endloop
  endfacet
  facet normal 0.42261 -0.906312 0
    outer loop
      vertex 5.5 -9.52628 25
      vertex 3.76222 -10.3366 3
      vertex 5.5 -9.52628 3
    endloop
  endfacet
  facet normal -0.258836 -0.965921 0
    outer loop
      vertex -3.76222 -10.3366 0
      vertex -1.91013 -10.8329 25
      vertex -3.76222 -10.3366 25
    endloop
  endfacet
  facet normal -0.258836 -0.965921 -0
    outer loop
      vertex -1.91013 -10.8329 25
      vertex -3.76222 -10.3366 0
      vertex -1.91013 -10.8329 0
    endloop
  endfacet
  facet normal -0.906312 -0.42261 0
    outer loop
      vertex -9.52628 -5.5 0
      vertex -10.3366 -3.76222 25
      vertex -10.3366 -3.76222 0
    endloop
  endfacet
  facet normal -0.906312 -0.42261 0
    outer loop
      vertex -10.3366 -3.76222 25
      vertex -9.52628 -5.5 0
      vertex -9.52628 -5.5 25
    endloop
  endfacet
  facet normal -0.819152 -0.573577 0
    outer loop
      vertex -8.42649 -7.07066 0
      vertex -9.52628 -5.5 25
      vertex -9.52628 -5.5 0
    endloop
  endfacet
  facet normal -0.819152 -0.573577 0
    outer loop
      vertex -9.52628 -5.5 25
      vertex -8.42649 -7.07066 0
      vertex -8.42649 -7.07066 25
    endloop
  endfacet
  facet normal -0.996195 -0.0871481 0
    outer loop
      vertex -10.8329 -1.91013 0
      vertex -11 0 25
      vertex -11 0 0
    endloop
  endfacet
  facet normal -0.996195 -0.0871481 0
    outer loop
      vertex -11 0 25
      vertex -10.8329 -1.91013 0
      vertex -10.8329 -1.91013 25
    endloop
  endfacet
  facet normal 0.258836 -0.965921 0
    outer loop
      vertex 1.91013 -10.8329 3
      vertex 3.76222 -10.3366 25
      vertex 1.91013 -10.8329 25
    endloop
  endfacet
  facet normal 0.258836 -0.965921 0
    outer loop
      vertex 3.76222 -10.3366 25
      vertex 1.91013 -10.8329 3
      vertex 3.76222 -10.3366 3
    endloop
  endfacet
  facet normal 0.573577 -0.819152 0
    outer loop
      vertex 5.5 -9.52628 3
      vertex 7.07066 -8.42649 25
      vertex 5.5 -9.52628 25
    endloop
  endfacet
  facet normal 0.573577 -0.819152 0
    outer loop
      vertex 7.07066 -8.42649 25
      vertex 5.5 -9.52628 3
      vertex 7.07066 -8.42649 3
    endloop
  endfacet
  facet normal 0.906312 -0.42261 0
    outer loop
      vertex 9.52628 -5.5 25
      vertex 10.3366 -3.76222 3
      vertex 10.3366 -3.76222 25
    endloop
  endfacet
  facet normal 0.906312 -0.42261 0
    outer loop
      vertex 10.3366 -3.76222 3
      vertex 9.52628 -5.5 25
      vertex 9.52628 -5.5 3
    endloop
  endfacet
  facet normal 0.819152 -0.573577 0
    outer loop
      vertex 8.42649 -7.07066 25
      vertex 9.52628 -5.5 3
      vertex 9.52628 -5.5 25
    endloop
  endfacet
  facet normal 0.819152 -0.573577 0
    outer loop
      vertex 9.52628 -5.5 3
      vertex 8.42649 -7.07066 25
      vertex 8.42649 -7.07066 3
    endloop
  endfacet
  facet normal 0.965921 -0.258836 0
    outer loop
      vertex 10.3366 -3.76222 25
      vertex 10.8329 -1.91013 3
      vertex 10.8329 -1.91013 25
    endloop
  endfacet
  facet normal 0.965921 -0.258836 0
    outer loop
      vertex 10.8329 -1.91013 3
      vertex 10.3366 -3.76222 25
      vertex 10.3366 -3.76222 3
    endloop
  endfacet
  facet normal -0.573577 -0.819152 0
    outer loop
      vertex -7.07066 -8.42649 0
      vertex -5.5 -9.52628 25
      vertex -7.07066 -8.42649 25
    endloop
  endfacet
  facet normal -0.573577 -0.819152 -0
    outer loop
      vertex -5.5 -9.52628 25
      vertex -7.07066 -8.42649 0
      vertex -5.5 -9.52628 0
    endloop
  endfacet
  facet normal -0.707107 -0.707107 0
    outer loop
      vertex -7.07066 -8.42649 0
      vertex -8.42649 -7.07066 25
      vertex -8.42649 -7.07066 0
    endloop
  endfacet
  facet normal -0.707107 -0.707107 0
    outer loop
      vertex -8.42649 -7.07066 25
      vertex -7.07066 -8.42649 0
      vertex -7.07066 -8.42649 25
    endloop
  endfacet
  facet normal -0.42261 -0.906312 0
    outer loop
      vertex -5.5 -9.52628 0
      vertex -3.76222 -10.3366 25
      vertex -5.5 -9.52628 25
    endloop
  endfacet
  facet normal -0.42261 -0.906312 -0
    outer loop
      vertex -3.76222 -10.3366 25
      vertex -5.5 -9.52628 0
      vertex -3.76222 -10.3366 0
    endloop
  endfacet
  facet normal -0.965921 -0.258836 0
    outer loop
      vertex -10.3366 -3.76222 0
      vertex -10.8329 -1.91013 25
      vertex -10.8329 -1.91013 0
    endloop
  endfacet
  facet normal -0.965921 -0.258836 0
    outer loop
      vertex -10.8329 -1.91013 25
      vertex -10.3366 -3.76222 0
      vertex -10.3366 -3.76222 25
    endloop
  endfacet
  facet normal -0.707107 0.707107 0
    outer loop
      vertex -8.42649 7.07066 0
      vertex -7.07066 8.42649 25
      vertex -7.07066 8.42649 0
    endloop
  endfacet
  facet normal -0.707107 0.707107 0
    outer loop
      vertex -7.07066 8.42649 25
      vertex -8.42649 7.07066 0
      vertex -8.42649 7.07066 25
    endloop
  endfacet
  facet normal 0.996195 -0.0871481 0
    outer loop
      vertex 10.8329 -1.91013 25
      vertex 11 0 3
      vertex 11 0 25
    endloop
  endfacet
  facet normal 0.996195 -0.0871481 0
    outer loop
      vertex 11 0 3
      vertex 10.8329 -1.91013 25
      vertex 10.8329 -1.91013 3
    endloop
  endfacet
  facet normal -0.991288 -0.086728 0.0991286
    outer loop
      vertex 4 0 15.1
      vertex 4.98939 0.00694588 25
      vertex 3.93923 0.694592 15.1
    endloop
  endfacet
  facet normal -0.99126 -0.0870542 0.099126
    outer loop
      vertex 4.98939 0.00694588 25
      vertex 4 0 15.1
      vertex 4.99 0 25
    endloop
  endfacet
  facet normal 0.570754 -0.815116 0.0991285
    outer loop
      vertex -2.57115 3.06418 15.1
      vertex -2.50071 4.31747 25
      vertex -3.20751 3.82256 25
    endloop
  endfacet
  facet normal -0.570754 0.815116 0.0991285
    outer loop
      vertex 3.20751 -3.82256 25
      vertex 2.57115 -3.06418 15.1
      vertex 2.50071 -4.31747 25
    endloop
  endfacet
  facet normal 0.99126 0.0870542 0.099126
    outer loop
      vertex -4.98939 -0.00694588 25
      vertex -4 0 15.1
      vertex -4.99 0 25
    endloop
  endfacet
  facet normal 0.991288 0.086728 0.0991286
    outer loop
      vertex -4 0 15.1
      vertex -4.98939 -0.00694588 25
      vertex -3.93923 -0.694592 15.1
    endloop
  endfacet
  facet normal -0.961169 -0.257543 0.0991289
    outer loop
      vertex 4.91419 0.866504 25
      vertex 4.69087 1.69995 25
      vertex 3.93923 0.694592 15.1
    endloop
  endfacet
  facet normal -0.815116 0.570754 0.0991285
    outer loop
      vertex 3.82256 -3.20751 25
      vertex 4.31747 -2.50071 25
      vertex 3.06418 -2.57115 15.1
    endloop
  endfacet
  facet normal -0.420544 0.901841 0.0991291
    outer loop
      vertex 1.70668 -4.68907 25
      vertex 2.48868 -4.32441 25
      vertex 1.36808 -3.75877 15.1
    endloop
  endfacet
  facet normal 0.420538 0.901843 0.0991286
    outer loop
      vertex -2 -3.4641 15.1
      vertex -2.48868 -4.32441 25
      vertex -1.36808 -3.75877 15.1
    endloop
  endfacet
  facet normal 0.419708 0.90223 0.0991213
    outer loop
      vertex -2.48868 -4.32441 25
      vertex -2 -3.4641 15.1
      vertex -2.495 -4.32147 25
    endloop
  endfacet
  facet normal 0.991288 0.0867246 0.0991288
    outer loop
      vertex -4.91419 -0.866504 25
      vertex -3.93923 -0.694592 15.1
      vertex -4.98939 -0.00694588 25
    endloop
  endfacet
  facet normal 0.815116 -0.570754 0.0991285
    outer loop
      vertex -3.06418 2.57115 15.1
      vertex -3.82256 3.20751 25
      vertex -4.31747 2.50071 25
    endloop
  endfacet
  facet normal 0.420544 -0.901841 0.0991291
    outer loop
      vertex -1.36808 3.75877 15.1
      vertex -1.70668 4.68907 25
      vertex -2.48868 4.32441 25
    endloop
  endfacet
  facet normal -0.815116 -0.570754 0.0991285
    outer loop
      vertex 4.31747 2.50071 25
      vertex 3.82256 3.20751 25
      vertex 3.06418 2.57115 15.1
    endloop
  endfacet
  facet normal -0.570748 -0.81512 0.0991292
    outer loop
      vertex 2.57115 3.06418 15.1
      vertex 2.495 4.32147 25
      vertex 2 3.4641 15.1
    endloop
  endfacet
  facet normal -0.570926 -0.814997 0.0991123
    outer loop
      vertex 2.495 4.32147 25
      vertex 2.57115 3.06418 15.1
      vertex 2.50071 4.31747 25
    endloop
  endfacet
  facet normal -0.991288 -0.0867246 0.0991288
    outer loop
      vertex 4.98939 0.00694588 25
      vertex 4.91419 0.866504 25
      vertex 3.93923 0.694592 15.1
    endloop
  endfacet
  facet normal -0.961168 0.257544 0.0991289
    outer loop
      vertex 3.75877 -1.36808 15.1
      vertex 4.69087 -1.69995 25
      vertex 3.93923 -0.694592 15.1
    endloop
  endfacet
  facet normal -0.961286 0.257105 0.0991253
    outer loop
      vertex 4.69087 -1.69995 25
      vertex 3.75877 -1.36808 15.1
      vertex 4.68907 -1.70668 25
    endloop
  endfacet
  facet normal -0.703624 0.703624 0.0991285
    outer loop
      vertex 2.57115 -3.06418 15.1
      vertex 3.82256 -3.20751 25
      vertex 3.06418 -2.57115 15.1
    endloop
  endfacet
  facet normal -0.703624 0.703624 0.0991285
    outer loop
      vertex 3.82256 -3.20751 25
      vertex 2.57115 -3.06418 15.1
      vertex 3.20751 -3.82256 25
    endloop
  endfacet
  facet normal -0.961169 0.257543 0.0991289
    outer loop
      vertex 4.69087 -1.69995 25
      vertex 4.91419 -0.866504 25
      vertex 3.93923 -0.694592 15.1
    endloop
  endfacet
  facet normal -0.901841 0.420544 0.0991291
    outer loop
      vertex 4.32441 -2.48868 25
      vertex 4.68907 -1.70668 25
      vertex 3.75877 -1.36808 15.1
    endloop
  endfacet
  facet normal -0.257105 0.961286 0.0991253
    outer loop
      vertex 1.36808 -3.75877 15.1
      vertex 1.69995 -4.69087 25
      vertex 1.70668 -4.68907 25
    endloop
  endfacet
  facet normal -0.257544 0.961168 0.0991289
    outer loop
      vertex 1.69995 -4.69087 25
      vertex 1.36808 -3.75877 15.1
      vertex 0.694592 -3.93923 15.1
    endloop
  endfacet
  facet normal -0.0867246 0.991288 0.0991288
    outer loop
      vertex 0.866504 -4.91419 25
      vertex 0.694592 -3.93923 15.1
      vertex 0.00694588 -4.98939 25
    endloop
  endfacet
  facet normal 0.961169 0.257543 0.0991289
    outer loop
      vertex -4.69087 -1.69995 25
      vertex -3.93923 -0.694592 15.1
      vertex -4.91419 -0.866504 25
    endloop
  endfacet
  facet normal 0.901841 0.420544 0.0991291
    outer loop
      vertex -4.32441 -2.48868 25
      vertex -3.75877 -1.36808 15.1
      vertex -4.68907 -1.70668 25
    endloop
  endfacet
  facet normal 0.901843 0.420538 0.0991286
    outer loop
      vertex -4.32441 -2.48868 25
      vertex -3.4641 -2 15.1
      vertex -3.75877 -1.36808 15.1
    endloop
  endfacet
  facet normal 0.90223 0.419708 0.0991213
    outer loop
      vertex -3.4641 -2 15.1
      vertex -4.32441 -2.48868 25
      vertex -4.32147 -2.495 25
    endloop
  endfacet
  facet normal 0.570748 0.81512 0.0991292
    outer loop
      vertex -2.57115 -3.06418 15.1
      vertex -2.495 -4.32147 25
      vertex -2 -3.4641 15.1
    endloop
  endfacet
  facet normal 0.570926 0.814997 0.0991123
    outer loop
      vertex -2.495 -4.32147 25
      vertex -2.57115 -3.06418 15.1
      vertex -2.50071 -4.31747 25
    endloop
  endfacet
  facet normal 0.703624 0.703624 0.0991285
    outer loop
      vertex -3.82256 -3.20751 25
      vertex -2.57115 -3.06418 15.1
      vertex -3.06418 -2.57115 15.1
    endloop
  endfacet
  facet normal 0.703624 0.703624 0.0991285
    outer loop
      vertex -2.57115 -3.06418 15.1
      vertex -3.82256 -3.20751 25
      vertex -3.20751 -3.82256 25
    endloop
  endfacet
  facet normal 0.961286 -0.257105 0.0991253
    outer loop
      vertex -4.69087 1.69995 25
      vertex -3.75877 1.36808 15.1
      vertex -4.68907 1.70668 25
    endloop
  endfacet
  facet normal 0.961168 -0.257544 0.0991289
    outer loop
      vertex -3.75877 1.36808 15.1
      vertex -4.69087 1.69995 25
      vertex -3.93923 0.694592 15.1
    endloop
  endfacet
  facet normal 0.703624 -0.703624 0.0991285
    outer loop
      vertex -3.82256 3.20751 25
      vertex -2.57115 3.06418 15.1
      vertex -3.20751 3.82256 25
    endloop
  endfacet
  facet normal 0.703624 -0.703624 0.0991285
    outer loop
      vertex -2.57115 3.06418 15.1
      vertex -3.82256 3.20751 25
      vertex -3.06418 2.57115 15.1
    endloop
  endfacet
  facet normal 0.961169 -0.257543 0.0991289
    outer loop
      vertex -3.93923 0.694592 15.1
      vertex -4.69087 1.69995 25
      vertex -4.91419 0.866504 25
    endloop
  endfacet
  facet normal 0.901841 -0.420544 0.0991291
    outer loop
      vertex -3.75877 1.36808 15.1
      vertex -4.32441 2.48868 25
      vertex -4.68907 1.70668 25
    endloop
  endfacet
  facet normal 0.257105 -0.961286 0.0991253
    outer loop
      vertex -1.36808 3.75877 15.1
      vertex -1.69995 4.69087 25
      vertex -1.70668 4.68907 25
    endloop
  endfacet
  facet normal 0.257544 -0.961168 0.0991289
    outer loop
      vertex -1.69995 4.69087 25
      vertex -1.36808 3.75877 15.1
      vertex -0.694592 3.93923 15.1
    endloop
  endfacet
  facet normal 0.0867246 -0.991288 0.0991288
    outer loop
      vertex -0.694592 3.93923 15.1
      vertex -0.00694588 4.98939 25
      vertex -0.866504 4.91419 25
    endloop
  endfacet
  facet normal -0.0870542 -0.99126 0.099126
    outer loop
      vertex 0 4 15.1
      vertex 0.00694588 4.98939 25
      vertex 0 4.99 25
    endloop
  endfacet
  facet normal -0.086728 -0.991288 0.0991286
    outer loop
      vertex 0.00694588 4.98939 25
      vertex 0 4 15.1
      vertex 0.694592 3.93923 15.1
    endloop
  endfacet
  facet normal -0.570754 -0.815116 0.0991285
    outer loop
      vertex 2.57115 3.06418 15.1
      vertex 3.20751 3.82256 25
      vertex 2.50071 4.31747 25
    endloop
  endfacet
  facet normal -0.901841 -0.420544 0.0991291
    outer loop
      vertex 4.68907 1.70668 25
      vertex 4.32441 2.48868 25
      vertex 3.75877 1.36808 15.1
    endloop
  endfacet
  facet normal -0.257544 -0.961168 0.0991289
    outer loop
      vertex 1.36808 3.75877 15.1
      vertex 1.69995 4.69087 25
      vertex 0.694592 3.93923 15.1
    endloop
  endfacet
  facet normal -0.257105 -0.961286 0.0991253
    outer loop
      vertex 1.69995 4.69087 25
      vertex 1.36808 3.75877 15.1
      vertex 1.70668 4.68907 25
    endloop
  endfacet
  facet normal -0.81512 0.570748 0.0991292
    outer loop
      vertex 3.06418 -2.57115 15.1
      vertex 4.32147 -2.495 25
      vertex 3.4641 -2 15.1
    endloop
  endfacet
  facet normal -0.814997 0.570926 0.0991123
    outer loop
      vertex 4.32147 -2.495 25
      vertex 3.06418 -2.57115 15.1
      vertex 4.31747 -2.50071 25
    endloop
  endfacet
  facet normal -0.99126 0.0870542 0.099126
    outer loop
      vertex 4 0 15.1
      vertex 4.98939 -0.00694588 25
      vertex 4.99 0 25
    endloop
  endfacet
  facet normal -0.991288 0.086728 0.0991286
    outer loop
      vertex 4.98939 -0.00694588 25
      vertex 4 0 15.1
      vertex 3.93923 -0.694592 15.1
    endloop
  endfacet
  facet normal -0.991288 0.0867246 0.0991288
    outer loop
      vertex 4.91419 -0.866504 25
      vertex 4.98939 -0.00694588 25
      vertex 3.93923 -0.694592 15.1
    endloop
  endfacet
  facet normal -0.257543 0.961169 0.0991289
    outer loop
      vertex 0.866504 -4.91419 25
      vertex 1.69995 -4.69087 25
      vertex 0.694592 -3.93923 15.1
    endloop
  endfacet
  facet normal -0.086728 0.991288 0.0991286
    outer loop
      vertex 0 -4 15.1
      vertex 0.00694588 -4.98939 25
      vertex 0.694592 -3.93923 15.1
    endloop
  endfacet
  facet normal -0.0870542 0.99126 0.099126
    outer loop
      vertex 0.00694588 -4.98939 25
      vertex 0 -4 15.1
      vertex 0 -4.99 25
    endloop
  endfacet
  facet normal 0 0 1
    outer loop
      vertex 3.93923 0.694592 15.1
      vertex 3.93923 -0.694592 15.1
      vertex 4 0 15.1
    endloop
  endfacet
  facet normal 0 0 1
    outer loop
      vertex 3.75877 1.36808 15.1
      vertex 3.93923 -0.694592 15.1
      vertex 3.93923 0.694592 15.1
    endloop
  endfacet
  facet normal 0 0 1
    outer loop
      vertex 3.75877 1.36808 15.1
      vertex 3.75877 -1.36808 15.1
      vertex 3.93923 -0.694592 15.1
    endloop
  endfacet
  facet normal 0 0 1
    outer loop
      vertex 3.4641 2 15.1
      vertex 3.75877 -1.36808 15.1
      vertex 3.75877 1.36808 15.1
    endloop
  endfacet
  facet normal 0 0 1
    outer loop
      vertex 3.4641 2 15.1
      vertex 3.4641 -2 15.1
      vertex 3.75877 -1.36808 15.1
    endloop
  endfacet
  facet normal 0 0 1
    outer loop
      vertex 3.06418 2.57115 15.1
      vertex 3.4641 -2 15.1
      vertex 3.4641 2 15.1
    endloop
  endfacet
  facet normal 0 0 1
    outer loop
      vertex 3.06418 2.57115 15.1
      vertex 3.06418 -2.57115 15.1
      vertex 3.4641 -2 15.1
    endloop
  endfacet
  facet normal 0 0 1
    outer loop
      vertex 2.57115 3.06418 15.1
      vertex 3.06418 -2.57115 15.1
      vertex 3.06418 2.57115 15.1
    endloop
  endfacet
  facet normal 0 0 1
    outer loop
      vertex 2.57115 3.06418 15.1
      vertex 2.57115 -3.06418 15.1
      vertex 3.06418 -2.57115 15.1
    endloop
  endfacet
  facet normal 0 0 1
    outer loop
      vertex 2 3.4641 15.1
      vertex 2.57115 -3.06418 15.1
      vertex 2.57115 3.06418 15.1
    endloop
  endfacet
  facet normal 0 0 1
    outer loop
      vertex 2 3.4641 15.1
      vertex 2 -3.4641 15.1
      vertex 2.57115 -3.06418 15.1
    endloop
  endfacet
  facet normal 0 0 1
    outer loop
      vertex 1.36808 3.75877 15.1
      vertex 2 -3.4641 15.1
      vertex 2 3.4641 15.1
    endloop
  endfacet
  facet normal 0 0 1
    outer loop
      vertex 1.36808 3.75877 15.1
      vertex 1.36808 -3.75877 15.1
      vertex 2 -3.4641 15.1
    endloop
  endfacet
  facet normal 0 0 1
    outer loop
      vertex 0.694592 3.93923 15.1
      vertex 1.36808 -3.75877 15.1
      vertex 1.36808 3.75877 15.1
    endloop
  endfacet
  facet normal 0 0 1
    outer loop
      vertex 0.694592 3.93923 15.1
      vertex 0.694592 -3.93923 15.1
      vertex 1.36808 -3.75877 15.1
    endloop
  endfacet
  facet normal 0 0 1
    outer loop
      vertex 0 4 15.1
      vertex 0.694592 -3.93923 15.1
      vertex 0.694592 3.93923 15.1
    endloop
  endfacet
  facet normal 0 0 1
    outer loop
      vertex 0 4 15.1
      vertex 0 -4 15.1
      vertex 0.694592 -3.93923 15.1
    endloop
  endfacet
  facet normal -0 0 1
    outer loop
      vertex -0.694592 3.93923 15.1
      vertex 0 -4 15.1
      vertex 0 4 15.1
    endloop
  endfacet
  facet normal 0 0 1
    outer loop
      vertex -0.694592 3.93923 15.1
      vertex -0.694592 -3.93923 15.1
      vertex 0 -4 15.1
    endloop
  endfacet
  facet normal -0 0 1
    outer loop
      vertex -1.36808 3.75877 15.1
      vertex -0.694592 -3.93923 15.1
      vertex -0.694592 3.93923 15.1
    endloop
  endfacet
  facet normal 0 0 1
    outer loop
      vertex -1.36808 3.75877 15.1
      vertex -1.36808 -3.75877 15.1
      vertex -0.694592 -3.93923 15.1
    endloop
  endfacet
  facet normal -0 0 1
    outer loop
      vertex -2 3.4641 15.1
      vertex -1.36808 -3.75877 15.1
      vertex -1.36808 3.75877 15.1
    endloop
  endfacet
  facet normal 0 0 1
    outer loop
      vertex -2 3.4641 15.1
      vertex -2 -3.4641 15.1
      vertex -1.36808 -3.75877 15.1
    endloop
  endfacet
  facet normal -0 0 1
    outer loop
      vertex -2.57115 3.06418 15.1
      vertex -2 -3.4641 15.1
      vertex -2 3.4641 15.1
    endloop
  endfacet
  facet normal 0 0 1
    outer loop
      vertex -2.57115 3.06418 15.1
      vertex -2.57115 -3.06418 15.1
      vertex -2 -3.4641 15.1
    endloop
  endfacet
  facet normal -0 0 1
    outer loop
      vertex -3.06418 2.57115 15.1
      vertex -2.57115 -3.06418 15.1
      vertex -2.57115 3.06418 15.1
    endloop
  endfacet
  facet normal 0 0 1
    outer loop
      vertex -3.06418 2.57115 15.1
      vertex -3.06418 -2.57115 15.1
      vertex -2.57115 -3.06418 15.1
    endloop
  endfacet
  facet normal -0 0 1
    outer loop
      vertex -3.4641 2 15.1
      vertex -3.06418 -2.57115 15.1
      vertex -3.06418 2.57115 15.1
    endloop
  endfacet
  facet normal 0 0 1
    outer loop
      vertex -3.4641 2 15.1
      vertex -3.4641 -2 15.1
      vertex -3.06418 -2.57115 15.1
    endloop
  endfacet
  facet normal -0 0 1
    outer loop
      vertex -3.75877 1.36808 15.1
      vertex -3.4641 -2 15.1
      vertex -3.4641 2 15.1
    endloop
  endfacet
  facet normal 0 0 1
    outer loop
      vertex -3.75877 1.36808 15.1
      vertex -3.75877 -1.36808 15.1
      vertex -3.4641 -2 15.1
    endloop
  endfacet
  facet normal -0 0 1
    outer loop
      vertex -3.93923 0.694592 15.1
      vertex -3.75877 -1.36808 15.1
      vertex -3.75877 1.36808 15.1
    endloop
  endfacet
  facet normal 0 0 1
    outer loop
      vertex -3.93923 0.694592 15.1
      vertex -3.93923 -0.694592 15.1
      vertex -3.75877 -1.36808 15.1
    endloop
  endfacet
  facet normal 0 -0 1
    outer loop
      vertex -3.93923 -0.694592 15.1
      vertex -3.93923 0.694592 15.1
      vertex -4 0 15.1
    endloop
  endfacet
  facet normal 0.961168 0.257544 0.0991289
    outer loop
      vertex -4.69087 -1.69995 25
      vertex -3.75877 -1.36808 15.1
      vertex -3.93923 -0.694592 15.1
    endloop
  endfacet
  facet normal 0.961286 0.257105 0.0991253
    outer loop
      vertex -3.75877 -1.36808 15.1
      vertex -4.69087 -1.69995 25
      vertex -4.68907 -1.70668 25
    endloop
  endfacet
  facet normal 0.815116 0.570754 0.0991285
    outer loop
      vertex -3.82256 -3.20751 25
      vertex -3.06418 -2.57115 15.1
      vertex -4.31747 -2.50071 25
    endloop
  endfacet
  facet normal 0.0870542 0.99126 0.099126
    outer loop
      vertex 0 -4 15.1
      vertex -0.00694588 -4.98939 25
      vertex 0 -4.99 25
    endloop
  endfacet
  facet normal 0.086728 0.991288 0.0991286
    outer loop
      vertex -0.00694588 -4.98939 25
      vertex 0 -4 15.1
      vertex -0.694592 -3.93923 15.1
    endloop
  endfacet
  facet normal 0.420544 0.901841 0.0991291
    outer loop
      vertex -1.70668 -4.68907 25
      vertex -1.36808 -3.75877 15.1
      vertex -2.48868 -4.32441 25
    endloop
  endfacet
  facet normal 0.0867246 0.991288 0.0991288
    outer loop
      vertex -0.00694588 -4.98939 25
      vertex -0.694592 -3.93923 15.1
      vertex -0.866504 -4.91419 25
    endloop
  endfacet
  facet normal 0.570754 0.815116 0.0991285
    outer loop
      vertex -2.50071 -4.31747 25
      vertex -2.57115 -3.06418 15.1
      vertex -3.20751 -3.82256 25
    endloop
  endfacet
  facet normal 0.814997 -0.570926 0.0991123
    outer loop
      vertex -4.32147 2.495 25
      vertex -3.06418 2.57115 15.1
      vertex -4.31747 2.50071 25
    endloop
  endfacet
  facet normal 0.81512 -0.570748 0.0991292
    outer loop
      vertex -3.06418 2.57115 15.1
      vertex -4.32147 2.495 25
      vertex -3.4641 2 15.1
    endloop
  endfacet
  facet normal 0.99126 -0.0870542 0.099126
    outer loop
      vertex -4 0 15.1
      vertex -4.98939 0.00694588 25
      vertex -4.99 0 25
    endloop
  endfacet
  facet normal 0.991288 -0.086728 0.0991286
    outer loop
      vertex -4.98939 0.00694588 25
      vertex -4 0 15.1
      vertex -3.93923 0.694592 15.1
    endloop
  endfacet
  facet normal 0.991288 -0.0867246 0.0991288
    outer loop
      vertex -3.93923 0.694592 15.1
      vertex -4.91419 0.866504 25
      vertex -4.98939 0.00694588 25
    endloop
  endfacet
  facet normal 0.257543 -0.961169 0.0991289
    outer loop
      vertex -0.694592 3.93923 15.1
      vertex -0.866504 4.91419 25
      vertex -1.69995 4.69087 25
    endloop
  endfacet
  facet normal 0.086728 -0.991288 0.0991286
    outer loop
      vertex 0 4 15.1
      vertex -0.00694588 4.98939 25
      vertex -0.694592 3.93923 15.1
    endloop
  endfacet
  facet normal 0.0870542 -0.99126 0.099126
    outer loop
      vertex -0.00694588 4.98939 25
      vertex 0 4 15.1
      vertex 0 4.99 25
    endloop
  endfacet
  facet normal -0.0867246 -0.991288 0.0991288
    outer loop
      vertex 0.694592 3.93923 15.1
      vertex 0.866504 4.91419 25
      vertex 0.00694588 4.98939 25
    endloop
  endfacet
  facet normal -0.961286 -0.257105 0.0991253
    outer loop
      vertex 3.75877 1.36808 15.1
      vertex 4.69087 1.69995 25
      vertex 4.68907 1.70668 25
    endloop
  endfacet
  facet normal -0.961168 -0.257544 0.0991289
    outer loop
      vertex 4.69087 1.69995 25
      vertex 3.75877 1.36808 15.1
      vertex 3.93923 0.694592 15.1
    endloop
  endfacet
  facet normal -0.703624 -0.703624 0.0991285
    outer loop
      vertex 2.57115 3.06418 15.1
      vertex 3.82256 3.20751 25
      vertex 3.20751 3.82256 25
    endloop
  endfacet
  facet normal -0.703624 -0.703624 0.0991285
    outer loop
      vertex 3.82256 3.20751 25
      vertex 2.57115 3.06418 15.1
      vertex 3.06418 2.57115 15.1
    endloop
  endfacet
  facet normal -0.257543 -0.961169 0.0991289
    outer loop
      vertex 1.69995 4.69087 25
      vertex 0.866504 4.91419 25
      vertex 0.694592 3.93923 15.1
    endloop
  endfacet
  facet normal -0.901843 0.420538 0.0991286
    outer loop
      vertex 3.4641 -2 15.1
      vertex 4.32441 -2.48868 25
      vertex 3.75877 -1.36808 15.1
    endloop
  endfacet
  facet normal -0.90223 0.419708 0.0991213
    outer loop
      vertex 4.32441 -2.48868 25
      vertex 3.4641 -2 15.1
      vertex 4.32147 -2.495 25
    endloop
  endfacet
  facet normal -0.570926 0.814997 0.0991123
    outer loop
      vertex 2.57115 -3.06418 15.1
      vertex 2.495 -4.32147 25
      vertex 2.50071 -4.31747 25
    endloop
  endfacet
  facet normal -0.570748 0.81512 0.0991292
    outer loop
      vertex 2.495 -4.32147 25
      vertex 2.57115 -3.06418 15.1
      vertex 2 -3.4641 15.1
    endloop
  endfacet
  facet normal -0.419708 0.90223 0.0991213
    outer loop
      vertex 2 -3.4641 15.1
      vertex 2.48868 -4.32441 25
      vertex 2.495 -4.32147 25
    endloop
  endfacet
  facet normal -0.420538 0.901843 0.0991286
    outer loop
      vertex 2.48868 -4.32441 25
      vertex 2 -3.4641 15.1
      vertex 1.36808 -3.75877 15.1
    endloop
  endfacet
  facet normal 0.814997 0.570926 0.0991123
    outer loop
      vertex -3.06418 -2.57115 15.1
      vertex -4.32147 -2.495 25
      vertex -4.31747 -2.50071 25
    endloop
  endfacet
  facet normal 0.81512 0.570748 0.0991292
    outer loop
      vertex -4.32147 -2.495 25
      vertex -3.06418 -2.57115 15.1
      vertex -3.4641 -2 15.1
    endloop
  endfacet
  facet normal 0.257543 0.961169 0.0991289
    outer loop
      vertex -0.866504 -4.91419 25
      vertex -0.694592 -3.93923 15.1
      vertex -1.69995 -4.69087 25
    endloop
  endfacet
  facet normal 0.257544 0.961168 0.0991289
    outer loop
      vertex -1.36808 -3.75877 15.1
      vertex -1.69995 -4.69087 25
      vertex -0.694592 -3.93923 15.1
    endloop
  endfacet
  facet normal 0.257105 0.961286 0.0991253
    outer loop
      vertex -1.69995 -4.69087 25
      vertex -1.36808 -3.75877 15.1
      vertex -1.70668 -4.68907 25
    endloop
  endfacet
  facet normal 0.90223 -0.419708 0.0991213
    outer loop
      vertex -4.32441 2.48868 25
      vertex -3.4641 2 15.1
      vertex -4.32147 2.495 25
    endloop
  endfacet
  facet normal 0.901843 -0.420538 0.0991286
    outer loop
      vertex -3.4641 2 15.1
      vertex -4.32441 2.48868 25
      vertex -3.75877 1.36808 15.1
    endloop
  endfacet
  facet normal 0.570926 -0.814997 0.0991123
    outer loop
      vertex -2.57115 3.06418 15.1
      vertex -2.495 4.32147 25
      vertex -2.50071 4.31747 25
    endloop
  endfacet
  facet normal 0.570748 -0.81512 0.0991292
    outer loop
      vertex -2.495 4.32147 25
      vertex -2.57115 3.06418 15.1
      vertex -2 3.4641 15.1
    endloop
  endfacet
  facet normal 0.419708 -0.90223 0.0991213
    outer loop
      vertex -2 3.4641 15.1
      vertex -2.48868 4.32441 25
      vertex -2.495 4.32147 25
    endloop
  endfacet
  facet normal 0.420538 -0.901843 0.0991286
    outer loop
      vertex -2.48868 4.32441 25
      vertex -2 3.4641 15.1
      vertex -1.36808 3.75877 15.1
    endloop
  endfacet
  facet normal -0.814997 -0.570926 0.0991123
    outer loop
      vertex 3.06418 2.57115 15.1
      vertex 4.32147 2.495 25
      vertex 4.31747 2.50071 25
    endloop
  endfacet
  facet normal -0.81512 -0.570748 0.0991292
    outer loop
      vertex 4.32147 2.495 25
      vertex 3.06418 2.57115 15.1
      vertex 3.4641 2 15.1
    endloop
  endfacet
  facet normal -0.90223 -0.419708 0.0991213
    outer loop
      vertex 3.4641 2 15.1
      vertex 4.32441 2.48868 25
      vertex 4.32147 2.495 25
    endloop
  endfacet
  facet normal -0.901843 -0.420538 0.0991286
    outer loop
      vertex 4.32441 2.48868 25
      vertex 3.4641 2 15.1
      vertex 3.75877 1.36808 15.1
    endloop
  endfacet
  facet normal -0.420544 -0.901841 0.0991291
    outer loop
      vertex 2.48868 4.32441 25
      vertex 1.70668 4.68907 25
      vertex 1.36808 3.75877 15.1
    endloop
  endfacet
  facet normal -0.420538 -0.901843 0.0991286
    outer loop
      vertex 2 3.4641 15.1
      vertex 2.48868 4.32441 25
      vertex 1.36808 3.75877 15.1
    endloop
  endfacet
  facet normal -0.419708 -0.90223 0.0991213
    outer loop
      vertex 2.48868 4.32441 25
      vertex 2 3.4641 15.1
      vertex 2.495 4.32147 25
    endloop
  endfacet
  facet normal 0.906291 0.422655 0
    outer loop
      vertex 34.7588 1.36808 13
      vertex 34.4641 2 0
      vertex 34.4641 2 13
    endloop
  endfacet
  facet normal 0.906291 0.422655 0
    outer loop
      vertex 34.4641 2 0
      vertex 34.7588 1.36808 13
      vertex 34.7588 1.36808 0
    endloop
  endfacet
  facet normal 0.819168 0.573554 0
    outer loop
      vertex 34.4641 2 13
      vertex 34.0642 2.57115 0
      vertex 34.0642 2.57115 13
    endloop
  endfacet
  facet normal 0.819168 0.573554 0
    outer loop
      vertex 34.0642 2.57115 0
      vertex 34.4641 2 13
      vertex 34.4641 2 0
    endloop
  endfacet
  facet normal 0.258814 0.965927 0
    outer loop
      vertex 32.3681 3.75877 13
      vertex 31.6946 3.93923 3
      vertex 31.6946 3.93923 13
    endloop
  endfacet
  facet normal 0.258814 0.965927 -0
    outer loop
      vertex 32.3681 3.75877 0
      vertex 31.6946 3.93923 3
      vertex 32.3681 3.75877 13
    endloop
  endfacet
  facet normal 0.258814 0.965927 0
    outer loop
      vertex 31.6946 3.93923 3
      vertex 32.3681 3.75877 0
      vertex 31.6946 3.93923 0
    endloop
  endfacet
  facet normal -0.42263 0.906302 0
    outer loop
      vertex 29.6319 3.75877 3
      vertex 29 3.4641 13
      vertex 29.6319 3.75877 13
    endloop
  endfacet
  facet normal -0.42263 0.906302 0
    outer loop
      vertex 29 3.4641 13
      vertex 29.6319 3.75877 3
      vertex 29 3.4641 3
    endloop
  endfacet
  facet normal -0.965948 0.258738 0
    outer loop
      vertex 27.0608 0.694592 3
      vertex 27.2412 1.36808 13
      vertex 27.2412 1.36808 3
    endloop
  endfacet
  facet normal -0.965948 0.258738 0
    outer loop
      vertex 27.2412 1.36808 13
      vertex 27.0608 0.694592 3
      vertex 27.0608 0.694592 13
    endloop
  endfacet
  facet normal 0.996191 -0.0872 0
    outer loop
      vertex 34.9392 -0.694592 13
      vertex 35 0 0
      vertex 35 0 13
    endloop
  endfacet
  facet normal 0.996191 -0.0872 0
    outer loop
      vertex 35 0 0
      vertex 34.9392 -0.694592 13
      vertex 34.9392 -0.694592 0
    endloop
  endfacet
  facet normal 0.258814 -0.965927 0
    outer loop
      vertex 31.6946 -3.93923 3
      vertex 32.3681 -3.75877 13
      vertex 31.6946 -3.93923 13
    endloop
  endfacet
  facet normal 0.258814 -0.965927 0
    outer loop
      vertex 32.3681 -3.75877 0
      vertex 31.6946 -3.93923 3
      vertex 31.6946 -3.93923 0
    endloop
  endfacet
  facet normal 0.258814 -0.965927 0
    outer loop
      vertex 31.6946 -3.93923 3
      vertex 32.3681 -3.75877 0
      vertex 32.3681 -3.75877 13
    endloop
  endfacet
  facet normal 0.965948 0.258738 0
    outer loop
      vertex 34.9392 0.694592 13
      vertex 34.7588 1.36808 0
      vertex 34.7588 1.36808 13
    endloop
  endfacet
  facet normal 0.965948 0.258738 0
    outer loop
      vertex 34.7588 1.36808 0
      vertex 34.9392 0.694592 13
      vertex 34.9392 0.694592 0
    endloop
  endfacet
  facet normal 0.707128 0.707085 0
    outer loop
      vertex 34.0642 2.57115 13
      vertex 33.5712 3.06418 0
      vertex 33.5712 3.06418 13
    endloop
  endfacet
  facet normal 0.707128 0.707085 0
    outer loop
      vertex 33.5712 3.06418 0
      vertex 34.0642 2.57115 13
      vertex 34.0642 2.57115 0
    endloop
  endfacet
  facet normal -0.0871563 0.996195 0
    outer loop
      vertex 31 4 3
      vertex 30.3054 3.93923 13
      vertex 31 4 13
    endloop
  endfacet
  facet normal -0.0871563 0.996195 0
    outer loop
      vertex 30.3054 3.93923 13
      vertex 31 4 3
      vertex 30.3054 3.93923 3
    endloop
  endfacet
  facet normal 0.573539 0.819178 -0
    outer loop
      vertex 33.5712 3.06418 0
      vertex 33 3.4641 13
      vertex 33.5712 3.06418 13
    endloop
  endfacet
  facet normal 0.573539 0.819178 0
    outer loop
      vertex 33 3.4641 13
      vertex 33.5712 3.06418 0
      vertex 33 3.4641 0
    endloop
  endfacet
  facet normal -0.996191 -0.0872 0
    outer loop
      vertex 27.0608 -0.694592 3
      vertex 27 0 13
      vertex 27 0 3
    endloop
  endfacet
  facet normal -0.996191 -0.0872 0
    outer loop
      vertex 27 0 13
      vertex 27.0608 -0.694592 3
      vertex 27.0608 -0.694592 13
    endloop
  endfacet
  facet normal -0.819168 0.573554 0
    outer loop
      vertex 27.5359 2 3
      vertex 27.9358 2.57115 13
      vertex 27.9358 2.57115 3
    endloop
  endfacet
  facet normal -0.819168 0.573554 0
    outer loop
      vertex 27.9358 2.57115 13
      vertex 27.5359 2 3
      vertex 27.5359 2 13
    endloop
  endfacet
  facet normal -0.573539 0.819178 0
    outer loop
      vertex 29 3.4641 3
      vertex 28.4288 3.06418 13
      vertex 29 3.4641 13
    endloop
  endfacet
  facet normal -0.573539 0.819178 0
    outer loop
      vertex 28.4288 3.06418 13
      vertex 29 3.4641 3
      vertex 28.4288 3.06418 3
    endloop
  endfacet
  facet normal -0.258814 0.965927 0
    outer loop
      vertex 30.3054 3.93923 3
      vertex 29.6319 3.75877 13
      vertex 30.3054 3.93923 13
    endloop
  endfacet
  facet normal -0.258814 0.965927 0
    outer loop
      vertex 29.6319 3.75877 13
      vertex 30.3054 3.93923 3
      vertex 29.6319 3.75877 3
    endloop
  endfacet
  facet normal -0.707128 0.707085 0
    outer loop
      vertex 27.9358 2.57115 3
      vertex 28.4288 3.06418 13
      vertex 28.4288 3.06418 3
    endloop
  endfacet
  facet normal -0.707128 0.707085 0
    outer loop
      vertex 28.4288 3.06418 13
      vertex 27.9358 2.57115 3
      vertex 27.9358 2.57115 13
    endloop
  endfacet
  facet normal 0.996191 0.0872 0
    outer loop
      vertex 35 0 13
      vertex 34.9392 0.694592 0
      vertex 34.9392 0.694592 13
    endloop
  endfacet
  facet normal 0.996191 0.0872 0
    outer loop
      vertex 34.9392 0.694592 0
      vertex 35 0 13
      vertex 35 0 0
    endloop
  endfacet
  facet normal 0.573539 -0.819178 0
    outer loop
      vertex 33 -3.4641 0
      vertex 33.5712 -3.06418 13
      vertex 33 -3.4641 13
    endloop
  endfacet
  facet normal 0.573539 -0.819178 0
    outer loop
      vertex 33.5712 -3.06418 13
      vertex 33 -3.4641 0
      vertex 33.5712 -3.06418 0
    endloop
  endfacet
  facet normal 0.819168 -0.573554 0
    outer loop
      vertex 34.0642 -2.57115 13
      vertex 34.4641 -2 0
      vertex 34.4641 -2 13
    endloop
  endfacet
  facet normal 0.819168 -0.573554 0
    outer loop
      vertex 34.4641 -2 0
      vertex 34.0642 -2.57115 13
      vertex 34.0642 -2.57115 0
    endloop
  endfacet
  facet normal -0.0871563 -0.996195 0
    outer loop
      vertex 30.3054 -3.93923 3
      vertex 31 -4 13
      vertex 30.3054 -3.93923 13
    endloop
  endfacet
  facet normal -0.0871563 -0.996195 -0
    outer loop
      vertex 31 -4 13
      vertex 30.3054 -3.93923 3
      vertex 31 -4 3
    endloop
  endfacet
  facet normal 0.0871563 0.996195 -0
    outer loop
      vertex 31.6946 3.93923 3
      vertex 31 4 13
      vertex 31.6946 3.93923 13
    endloop
  endfacet
  facet normal 0.0871563 0.996195 0
    outer loop
      vertex 31 4 13
      vertex 31.6946 3.93923 3
      vertex 31 4 3
    endloop
  endfacet
  facet normal 0.42263 0.906302 -0
    outer loop
      vertex 33 3.4641 0
      vertex 32.3681 3.75877 13
      vertex 33 3.4641 13
    endloop
  endfacet
  facet normal 0.42263 0.906302 0
    outer loop
      vertex 32.3681 3.75877 13
      vertex 33 3.4641 0
      vertex 32.3681 3.75877 0
    endloop
  endfacet
  facet normal 0 0 1
    outer loop
      vertex 34.9392 0.694592 13
      vertex 34.9392 -0.694592 13
      vertex 35 0 13
    endloop
  endfacet
  facet normal 0 0 1
    outer loop
      vertex 34.7588 1.36808 13
      vertex 34.9392 -0.694592 13
      vertex 34.9392 0.694592 13
    endloop
  endfacet
  facet normal 0 0 1
    outer loop
      vertex 34.7588 1.36808 13
      vertex 34.7588 -1.36808 13
      vertex 34.9392 -0.694592 13
    endloop
  endfacet
  facet normal 0 0 1
    outer loop
      vertex 34.4641 2 13
      vertex 34.7588 -1.36808 13
      vertex 34.7588 1.36808 13
    endloop
  endfacet
  facet normal 0 0 1
    outer loop
      vertex 34.4641 2 13
      vertex 34.4641 -2 13
      vertex 34.7588 -1.36808 13
    endloop
  endfacet
  facet normal 0 0 1
    outer loop
      vertex 34.0642 2.57115 13
      vertex 34.4641 -2 13
      vertex 34.4641 2 13
    endloop
  endfacet
  facet normal 0 0 1
    outer loop
      vertex 34.0642 2.57115 13
      vertex 34.0642 -2.57115 13
      vertex 34.4641 -2 13
    endloop
  endfacet
  facet normal 0 0 1
    outer loop
      vertex 33.5712 3.06418 13
      vertex 34.0642 -2.57115 13
      vertex 34.0642 2.57115 13
    endloop
  endfacet
  facet normal 0 0 1
    outer loop
      vertex 33.5712 3.06418 13
      vertex 33.5712 -3.06418 13
      vertex 34.0642 -2.57115 13
    endloop
  endfacet
  facet normal 0 0 1
    outer loop
      vertex 33 3.4641 13
      vertex 33.5712 -3.06418 13
      vertex 33.5712 3.06418 13
    endloop
  endfacet
  facet normal 0 0 1
    outer loop
      vertex 33 3.4641 13
      vertex 33 -3.4641 13
      vertex 33.5712 -3.06418 13
    endloop
  endfacet
  facet normal 0 0 1
    outer loop
      vertex 32.3681 3.75877 13
      vertex 33 -3.4641 13
      vertex 33 3.4641 13
    endloop
  endfacet
  facet normal 0 0 1
    outer loop
      vertex 32.3681 3.75877 13
      vertex 32.3681 -3.75877 13
      vertex 33 -3.4641 13
    endloop
  endfacet
  facet normal 0 0 1
    outer loop
      vertex 31.6946 3.93923 13
      vertex 32.3681 -3.75877 13
      vertex 32.3681 3.75877 13
    endloop
  endfacet
  facet normal 0 0 1
    outer loop
      vertex 31.6946 3.93923 13
      vertex 31.6946 -3.93923 13
      vertex 32.3681 -3.75877 13
    endloop
  endfacet
  facet normal 0 0 1
    outer loop
      vertex 31 4 13
      vertex 31.6946 -3.93923 13
      vertex 31.6946 3.93923 13
    endloop
  endfacet
  facet normal 0 0 1
    outer loop
      vertex 31 4 13
      vertex 31 -4 13
      vertex 31.6946 -3.93923 13
    endloop
  endfacet
  facet normal -0 0 1
    outer loop
      vertex 30.3054 3.93923 13
      vertex 31 -4 13
      vertex 31 4 13
    endloop
  endfacet
  facet normal 0 0 1
    outer loop
      vertex 30.3054 3.93923 13
      vertex 30.3054 -3.93923 13
      vertex 31 -4 13
    endloop
  endfacet
  facet normal -0 0 1
    outer loop
      vertex 29.6319 3.75877 13
      vertex 30.3054 -3.93923 13
      vertex 30.3054 3.93923 13
    endloop
  endfacet
  facet normal 0 0 1
    outer loop
      vertex 29.6319 3.75877 13
      vertex 29.6319 -3.75877 13
      vertex 30.3054 -3.93923 13
    endloop
  endfacet
  facet normal -0 0 1
    outer loop
      vertex 29 3.4641 13
      vertex 29.6319 -3.75877 13
      vertex 29.6319 3.75877 13
    endloop
  endfacet
  facet normal 0 0 1
    outer loop
      vertex 29 3.4641 13
      vertex 29 -3.4641 13
      vertex 29.6319 -3.75877 13
    endloop
  endfacet
  facet normal -0 0 1
    outer loop
      vertex 28.4288 3.06418 13
      vertex 29 -3.4641 13
      vertex 29 3.4641 13
    endloop
  endfacet
  facet normal 0 0 1
    outer loop
      vertex 28.4288 3.06418 13
      vertex 28.4288 -3.06418 13
      vertex 29 -3.4641 13
    endloop
  endfacet
  facet normal -0 0 1
    outer loop
      vertex 27.9358 2.57115 13
      vertex 28.4288 -3.06418 13
      vertex 28.4288 3.06418 13
    endloop
  endfacet
  facet normal 0 0 1
    outer loop
      vertex 27.9358 2.57115 13
      vertex 27.9358 -2.57115 13
      vertex 28.4288 -3.06418 13
    endloop
  endfacet
  facet normal -0 0 1
    outer loop
      vertex 27.5359 2 13
      vertex 27.9358 -2.57115 13
      vertex 27.9358 2.57115 13
    endloop
  endfacet
  facet normal 0 0 1
    outer loop
      vertex 27.5359 2 13
      vertex 27.5359 -2 13
      vertex 27.9358 -2.57115 13
    endloop
  endfacet
  facet normal -0 0 1
    outer loop
      vertex 27.2412 1.36808 13
      vertex 27.5359 -2 13
      vertex 27.5359 2 13
    endloop
  endfacet
  facet normal 0 0 1
    outer loop
      vertex 27.2412 1.36808 13
      vertex 27.2412 -1.36808 13
      vertex 27.5359 -2 13
    endloop
  endfacet
  facet normal -0 0 1
    outer loop
      vertex 27.0608 0.694592 13
      vertex 27.2412 -1.36808 13
      vertex 27.2412 1.36808 13
    endloop
  endfacet
  facet normal 0 0 1
    outer loop
      vertex 27.0608 0.694592 13
      vertex 27.0608 -0.694592 13
      vertex 27.2412 -1.36808 13
    endloop
  endfacet
  facet normal 0 -0 1
    outer loop
      vertex 27.0608 -0.694592 13
      vertex 27.0608 0.694592 13
      vertex 27 0 13
    endloop
  endfacet
  facet normal -0.996191 0.0872 0
    outer loop
      vertex 27 0 3
      vertex 27.0608 0.694592 13
      vertex 27.0608 0.694592 3
    endloop
  endfacet
  facet normal -0.996191 0.0872 0
    outer loop
      vertex 27.0608 0.694592 13
      vertex 27 0 3
      vertex 27 0 13
    endloop
  endfacet
  facet normal -0.965948 -0.258738 0
    outer loop
      vertex 27.2412 -1.36808 3
      vertex 27.0608 -0.694592 13
      vertex 27.0608 -0.694592 3
    endloop
  endfacet
  facet normal -0.965948 -0.258738 0
    outer loop
      vertex 27.0608 -0.694592 13
      vertex 27.2412 -1.36808 3
      vertex 27.2412 -1.36808 13
    endloop
  endfacet
  facet normal 0.707128 -0.707085 0
    outer loop
      vertex 33.5712 -3.06418 13
      vertex 34.0642 -2.57115 0
      vertex 34.0642 -2.57115 13
    endloop
  endfacet
  facet normal 0.707128 -0.707085 0
    outer loop
      vertex 34.0642 -2.57115 0
      vertex 33.5712 -3.06418 13
      vertex 33.5712 -3.06418 0
    endloop
  endfacet
  facet normal -0.906291 0.422655 0
    outer loop
      vertex 27.2412 1.36808 3
      vertex 27.5359 2 13
      vertex 27.5359 2 3
    endloop
  endfacet
  facet normal -0.906291 0.422655 0
    outer loop
      vertex 27.5359 2 13
      vertex 27.2412 1.36808 3
      vertex 27.2412 1.36808 13
    endloop
  endfacet
  facet normal 0.965948 -0.258738 0
    outer loop
      vertex 34.7588 -1.36808 13
      vertex 34.9392 -0.694592 0
      vertex 34.9392 -0.694592 13
    endloop
  endfacet
  facet normal 0.965948 -0.258738 0
    outer loop
      vertex 34.9392 -0.694592 0
      vertex 34.7588 -1.36808 13
      vertex 34.7588 -1.36808 0
    endloop
  endfacet
  facet normal 0.906291 -0.422655 0
    outer loop
      vertex 34.4641 -2 13
      vertex 34.7588 -1.36808 0
      vertex 34.7588 -1.36808 13
    endloop
  endfacet
  facet normal 0.906291 -0.422655 0
    outer loop
      vertex 34.7588 -1.36808 0
      vertex 34.4641 -2 13
      vertex 34.4641 -2 0
    endloop
  endfacet
  facet normal 0.0871563 -0.996195 0
    outer loop
      vertex 31 -4 3
      vertex 31.6946 -3.93923 13
      vertex 31 -4 13
    endloop
  endfacet
  facet normal 0.0871563 -0.996195 0
    outer loop
      vertex 31.6946 -3.93923 13
      vertex 31 -4 3
      vertex 31.6946 -3.93923 3
    endloop
  endfacet
  facet normal -0.906291 -0.422655 0
    outer loop
      vertex 27.5359 -2 3
      vertex 27.2412 -1.36808 13
      vertex 27.2412 -1.36808 3
    endloop
  endfacet
  facet normal -0.906291 -0.422655 0
    outer loop
      vertex 27.2412 -1.36808 13
      vertex 27.5359 -2 3
      vertex 27.5359 -2 13
    endloop
  endfacet
  facet normal -0.707128 -0.707085 0
    outer loop
      vertex 28.4288 -3.06418 3
      vertex 27.9358 -2.57115 13
      vertex 27.9358 -2.57115 3
    endloop
  endfacet
  facet normal -0.707128 -0.707085 0
    outer loop
      vertex 27.9358 -2.57115 13
      vertex 28.4288 -3.06418 3
      vertex 28.4288 -3.06418 13
    endloop
  endfacet
  facet normal -0.819168 -0.573554 0
    outer loop
      vertex 27.9358 -2.57115 3
      vertex 27.5359 -2 13
      vertex 27.5359 -2 3
    endloop
  endfacet
  facet normal -0.819168 -0.573554 0
    outer loop
      vertex 27.5359 -2 13
      vertex 27.9358 -2.57115 3
      vertex 27.9358 -2.57115 13
    endloop
  endfacet
  facet normal 0.42263 -0.906302 0
    outer loop
      vertex 32.3681 -3.75877 0
      vertex 33 -3.4641 13
      vertex 32.3681 -3.75877 13
    endloop
  endfacet
  facet normal 0.42263 -0.906302 0
    outer loop
      vertex 33 -3.4641 13
      vertex 32.3681 -3.75877 0
      vertex 33 -3.4641 0
    endloop
  endfacet
  facet normal -0.258814 -0.965927 0
    outer loop
      vertex 29.6319 -3.75877 3
      vertex 30.3054 -3.93923 13
      vertex 29.6319 -3.75877 13
    endloop
  endfacet
  facet normal -0.258814 -0.965927 -0
    outer loop
      vertex 30.3054 -3.93923 13
      vertex 29.6319 -3.75877 3
      vertex 30.3054 -3.93923 3
    endloop
  endfacet
  facet normal -0.573539 -0.819178 0
    outer loop
      vertex 28.4288 -3.06418 3
      vertex 29 -3.4641 13
      vertex 28.4288 -3.06418 13
    endloop
  endfacet
  facet normal -0.573539 -0.819178 -0
    outer loop
      vertex 29 -3.4641 13
      vertex 28.4288 -3.06418 3
      vertex 29 -3.4641 3
    endloop
  endfacet
  facet normal -0.42263 -0.906302 0
    outer loop
      vertex 29 -3.4641 3
      vertex 29.6319 -3.75877 13
      vertex 29 -3.4641 13
    endloop
  endfacet
  facet normal -0.42263 -0.906302 -0
    outer loop
      vertex 29.6319 -3.75877 13
      vertex 29 -3.4641 3
      vertex 29.6319 -3.75877 3
    endloop
  endfacet
  facet normal 0.225491 -0.974245 0
    outer loop
      vertex 1.91013 -10.8329 0
      vertex 31.6946 -3.93923 3
      vertex 1.91013 -10.8329 3
    endloop
  endfacet
  facet normal 0.225491 -0.974245 0
    outer loop
      vertex 31.6946 -3.93923 3
      vertex 1.91013 -10.8329 0
      vertex 31.6946 -3.93923 0
    endloop
  endfacet
  facet normal 0.225491 0.974245 -0
    outer loop
      vertex 31.6946 3.93923 0
      vertex 1.91013 10.8329 3
      vertex 31.6946 3.93923 3
    endloop
  endfacet
  facet normal 0.225491 0.974245 0
    outer loop
      vertex 1.91013 10.8329 3
      vertex 31.6946 3.93923 0
      vertex 1.91013 10.8329 0
    endloop
  endfacet
  facet normal 0 0 -1
    outer loop
      vertex 34.9392 -0.694592 0
      vertex 34.9392 0.694592 0
      vertex 35 0 0
    endloop
  endfacet
  facet normal 0 0 -1
    outer loop
      vertex 34.7588 -1.36808 0
      vertex 34.9392 0.694592 0
      vertex 34.9392 -0.694592 0
    endloop
  endfacet
  facet normal 0 0 -1
    outer loop
      vertex 34.7588 -1.36808 0
      vertex 34.7588 1.36808 0
      vertex 34.9392 0.694592 0
    endloop
  endfacet
  facet normal 0 0 -1
    outer loop
      vertex 34.4641 -2 0
      vertex 34.7588 1.36808 0
      vertex 34.7588 -1.36808 0
    endloop
  endfacet
  facet normal 0 0 -1
    outer loop
      vertex 34.4641 -2 0
      vertex 34.4641 2 0
      vertex 34.7588 1.36808 0
    endloop
  endfacet
  facet normal 0 0 -1
    outer loop
      vertex 34.0642 -2.57115 0
      vertex 34.4641 2 0
      vertex 34.4641 -2 0
    endloop
  endfacet
  facet normal 0 0 -1
    outer loop
      vertex 34.0642 -2.57115 0
      vertex 34.0642 2.57115 0
      vertex 34.4641 2 0
    endloop
  endfacet
  facet normal 0 0 -1
    outer loop
      vertex 33.5712 -3.06418 0
      vertex 34.0642 2.57115 0
      vertex 34.0642 -2.57115 0
    endloop
  endfacet
  facet normal 0 0 -1
    outer loop
      vertex 33.5712 -3.06418 0
      vertex 33.5712 3.06418 0
      vertex 34.0642 2.57115 0
    endloop
  endfacet
  facet normal 0 0 -1
    outer loop
      vertex 33 -3.4641 0
      vertex 33.5712 3.06418 0
      vertex 33.5712 -3.06418 0
    endloop
  endfacet
  facet normal 0 0 -1
    outer loop
      vertex 33 -3.4641 0
      vertex 33 3.4641 0
      vertex 33.5712 3.06418 0
    endloop
  endfacet
  facet normal 0 0 -1
    outer loop
      vertex 32.3681 -3.75877 0
      vertex 33 3.4641 0
      vertex 33 -3.4641 0
    endloop
  endfacet
  facet normal 0 0 -1
    outer loop
      vertex 32.3681 -3.75877 0
      vertex 32.3681 3.75877 0
      vertex 33 3.4641 0
    endloop
  endfacet
  facet normal 0 0 -1
    outer loop
      vertex 31.6946 -3.93923 0
      vertex 32.3681 3.75877 0
      vertex 32.3681 -3.75877 0
    endloop
  endfacet
  facet normal 0 0 -1
    outer loop
      vertex 31.6946 -3.93923 0
      vertex 31.6946 3.93923 0
      vertex 32.3681 3.75877 0
    endloop
  endfacet
  facet normal 0 0 -1
    outer loop
      vertex 1.91013 -10.8329 0
      vertex 31.6946 3.93923 0
      vertex 31.6946 -3.93923 0
    endloop
  endfacet
  facet normal 0 0 -1
    outer loop
      vertex 1.91013 -10.8329 0
      vertex 1.91013 10.8329 0
      vertex 31.6946 3.93923 0
    endloop
  endfacet
  facet normal 0 0 -1
    outer loop
      vertex 0 -11 0
      vertex 1.91013 10.8329 0
      vertex 1.91013 -10.8329 0
    endloop
  endfacet
  facet normal 0 0 -1
    outer loop
      vertex 0 -11 0
      vertex 0 11 0
      vertex 1.91013 10.8329 0
    endloop
  endfacet
  facet normal 0 0 -1
    outer loop
      vertex -1.91013 -10.8329 0
      vertex 0 11 0
      vertex 0 -11 0
    endloop
  endfacet
  facet normal 0 0 -1
    outer loop
      vertex -1.91013 -10.8329 0
      vertex -1.91013 10.8329 0
      vertex 0 11 0
    endloop
  endfacet
  facet normal 0 0 -1
    outer loop
      vertex -3.76222 -10.3366 0
      vertex -1.91013 10.8329 0
      vertex -1.91013 -10.8329 0
    endloop
  endfacet
  facet normal 0 0 -1
    outer loop
      vertex -3.76222 -10.3366 0
      vertex -3.76222 10.3366 0
      vertex -1.91013 10.8329 0
    endloop
  endfacet
  facet normal 0 0 -1
    outer loop
      vertex -5.5 -9.52628 0
      vertex -3.76222 10.3366 0
      vertex -3.76222 -10.3366 0
    endloop
  endfacet
  facet normal 0 0 -1
    outer loop
      vertex -5.5 -9.52628 0
      vertex -5.5 9.52628 0
      vertex -3.76222 10.3366 0
    endloop
  endfacet
  facet normal 0 0 -1
    outer loop
      vertex -7.07066 -8.42649 0
      vertex -5.5 9.52628 0
      vertex -5.5 -9.52628 0
    endloop
  endfacet
  facet normal 0 0 -1
    outer loop
      vertex -7.07066 -8.42649 0
      vertex -7.07066 8.42649 0
      vertex -5.5 9.52628 0
    endloop
  endfacet
  facet normal 0 0 -1
    outer loop
      vertex -8.42649 -7.07066 0
      vertex -7.07066 8.42649 0
      vertex -7.07066 -8.42649 0
    endloop
  endfacet
  facet normal 0 0 -1
    outer loop
      vertex -8.42649 -7.07066 0
      vertex -8.42649 7.07066 0
      vertex -7.07066 8.42649 0
    endloop
  endfacet
  facet normal 0 0 -1
    outer loop
      vertex -9.52628 -5.5 0
      vertex -8.42649 7.07066 0
      vertex -8.42649 -7.07066 0
    endloop
  endfacet
  facet normal 0 0 -1
    outer loop
      vertex -9.52628 -5.5 0
      vertex -9.52628 5.5 0
      vertex -8.42649 7.07066 0
    endloop
  endfacet
  facet normal 0 0 -1
    outer loop
      vertex -10.3366 -3.76222 0
      vertex -9.52628 5.5 0
      vertex -9.52628 -5.5 0
    endloop
  endfacet
  facet normal 0 0 -1
    outer loop
      vertex -10.3366 -3.76222 0
      vertex -10.3366 3.76222 0
      vertex -9.52628 5.5 0
    endloop
  endfacet
  facet normal 0 0 -1
    outer loop
      vertex -10.8329 -1.91013 0
      vertex -10.3366 3.76222 0
      vertex -10.3366 -3.76222 0
    endloop
  endfacet
  facet normal 0 0 -1
    outer loop
      vertex -10.8329 -1.91013 0
      vertex -10.8329 1.91013 0
      vertex -10.3366 3.76222 0
    endloop
  endfacet
  facet normal 0 -0 -1
    outer loop
      vertex -10.8329 1.91013 0
      vertex -10.8329 -1.91013 0
      vertex -11 0 0
    endloop
  endfacet
endsolid OpenSCAD_Model
